<svg width="129" height="27" viewBox="0 0 129 27" fill="none" xmlns="http://www.w3.org/2000/svg"><path d="M6.448 7.241H8.22v12.426H6.448V7.24zm9.342 1.878h-4.779V7.24h12.196v1.88h-5.151v10.547h-1.857V9.12h-.408z" fill="#fff" stroke="#fff" stroke-width=".871"/><path d="M37.41 9.48V6.832h-8.743c-2.711 0-3.752 1.576-3.752 4.12s1.495 3.735 3.752 3.735h5.607c1.046 0 1.077 1.032 1.077 1.652 0 .62-.24 1.285-1.083 1.285H25.25v2.45h9.018c2.257 0 3.752-1.191 3.752-3.735 0-2.544-1.038-4.101-3.748-4.101l-1.36-.001h-4.245c-.842 0-1.083-.666-1.083-1.285 0-.62 0-1.474 1.047-1.474h8.78z" fill="#fff"/><path d="M60.49 7.234v1.892h-8.82c-.376 0-.7.02-.972.082-.276.061-.523.171-.715.37-.192.198-.29.445-.342.708-.052.257-.065.56-.065.896v4.885c0 .588.157 1.101.55 1.459.386.35.926.486 1.545.486h7.005V14.28h-2.953v-1.643h4.76v7.03H51.37c-1.83 0-2.711-.335-3.153-.782-.436-.441-.542-1.088-.542-2.02v-6.53c0-1.144.128-1.864.575-2.327.449-.464 1.323-.774 3.12-.774h9.119zm4.8 8.496v3.938h-1.776V7.255h8.51c1.552 0 2.455.464 2.97.975.524.52.68 1.124.68 1.452V13.2c0 .406-.145.921-.603 1.34-.458.418-1.28.783-2.718.783h-.887l.578.674 3.15 3.671h-2.391l-3.458-4.196-.139-.17-.218.023c-.04.004-.142.005-.298.004l-.142-.002a20.251 20.251 0 00-.31-.004H65.29v.408zm.407-6.894h-.408v5.027h6.735c.801 0 1.31-.268 1.583-.705.24-.384.24-.822.239-1.033v-1.786c0-.146 0-.536-.255-.887-.28-.382-.781-.616-1.567-.616h-6.327zm16.746-1.58h5.138c1.977 0 3.716 1.598 3.716 3.52v5.52c0 1.907-1.722 3.402-3.716 3.402h-5.138c-1.998 0-3.745-1.499-3.745-3.402v-5.52c0-1.918 1.764-3.52 3.745-3.52zm5.138 10.905c.586 0 1.08-.328 1.41-.74.332-.412.542-.954.542-1.483v-4.803c0-.526-.208-1.087-.534-1.518-.324-.428-.818-.794-1.418-.794h-5.138c-.598 0-1.091.366-1.415.793-.327.43-.538.992-.538 1.519v4.803c0 .53.214 1.072.546 1.484.33.41.823.74 1.407.74h5.138zm17.711-2.751V7.257h1.864v9.034c0 1.86-1.529 3.377-3.429 3.377h-5.978c-1.899 0-3.428-1.516-3.428-3.377V7.25l1.827.005v8.163c0 .931.176 1.629.673 2.068.484.427 1.172.515 1.927.515h4.16c.76 0 1.404-.133 1.836-.602.422-.46.548-1.143.548-1.988z" fill="#fff" stroke="#fff" stroke-width=".871"/><path d="M113.025 13.227c0 .128.007.249.028.37h-.028v-.37zm.028-3.997a2.11 2.11 0 00-.028.368V9.23h.028z" fill="#fff"/><path d="M113.025 13.227c0 .128.007.249.028.37h-.028v-.37zm.028-3.997a2.11 2.11 0 00-.028.368V9.23h.028z" fill="#fff"/><path d="M112.41 15.598h-.408v4.068h-1.821V7.226h8.825c2.365 0 3.45 1.446 3.45 2.726v3.055c0 1.242-1.309 2.59-3.45 2.59h-6.596zm-.408-2.003v.408h7.004a1.86 1.86 0 001.873-1.854v-1.474a1.86 1.86 0 00-1.873-1.854h-7.004v4.774z" fill="#fff" stroke="#fff" stroke-width=".871"/></svg>