<svg width="180" height="52" viewBox="0 0 180 52" fill="none" xmlns="http://www.w3.org/2000/svg"><path d="M97.088 4.377c0-.413.174-.641.626-.641h5.558L104.05 0h-7.746c-3.218 0-4.78 1.366-4.78 4.277v.847h-3.57v4.69h3.57v9.506h5.558V9.813h6.233l.958-4.689h-7.19v-.747h.005zm14.393 2.788h-.43l.43-2.035h-5.531v14.196h5.531V9.819h7.419l.958-4.661h-4.349c-2.368 0-3.571.747-4.023 2.007h-.005zm22.493.279h-.501c-1.078-1.623-2.896-2.627-5.406-2.627-4.877 0-7.016 2.214-7.016 7.422s2.139 7.393 7.016 7.393c2.515 0 4.328-1.003 5.406-2.626h.506l-.506 2.32h5.531V5.13h-5.531l.501 2.314zm-.501 7.622h-3.37c-2.313 0-3.32-.982-3.32-2.86 0-1.88 1.001-2.549 3.32-2.549h3.37v5.409zM152.58 4.817c-2.564 0-4.05.898-5.03 2.314h-.43l.43-2.007h-5.53V19.32h5.53V9.35h3.147c1.41 0 1.834.776 1.834 1.701v8.27h5.531v-9.246c0-3.836-2.063-5.252-5.482-5.252v-.006zm26.484.307h-7.393l-4.73 5.409h-.474V0h-5.536v19.32h5.536v-6.418h.474l5.16 6.418h7.893l-7.218-7.678 6.288-6.512v-.006zm-78.683 22.989l.501 2.314h-.501c-1.078-1.623-2.896-2.626-5.406-2.626-4.877 0-7.016 2.213-7.016 7.421s2.139 7.394 7.016 7.394c2.515 0 4.328-1.004 5.406-2.627h.506l-.506 2.32h5.536V28.113h-5.536zm0 9.942h-3.37c-2.313 0-3.315-.982-3.315-2.86 0-1.88 1.002-2.549 3.315-2.549h3.37v5.409zm18.917.022h-3.141c-1.41 0-1.835-.77-1.835-1.7v-8.264h-5.53v9.245c0 3.836 2.063 5.252 5.481 5.252 2.564 0 4.05-.903 5.03-2.32h.43l-.43 2.008h5.531v-14.19h-5.531v9.969h-.005zm16.341-5.593h4.802l.903-4.377h-5.705V24.01h-5.481v4.093h-3.62v4.377h3.571v6.34c0 2.213 1.431 3.473 3.772 3.473h6.614l.904-4.377h-5.76v-5.43zm16.065-4.684c-6.233 0-9.053 2.348-9.053 7.422s2.841 7.394 9.053 7.394c6.211 0 9.08-2.32 9.08-7.394s-2.82-7.421-9.08-7.421zm0 10.846c-2.341 0-3.321-1.026-3.321-3.43 0-2.403.98-3.45 3.321-3.45 2.34 0 3.348 1.025 3.348 3.45 0 2.426-1.002 3.43-3.348 3.43zM60.588.028c-2.945 0-5.749 1.282-7.72 3.518l-3.167 3.602c-1.971 2.242-4.775 3.518-7.72 3.518H13.92C6.717 10.666.882 16.645.882 24.02v5.236c0 7.366 5.825 13.338 13.01 13.354 2.945 0 5.749-1.282 7.72-3.518l3.168-3.602c1.97-2.242 4.774-3.518 7.719-3.518h7.947c2.945 0 5.749 1.276 7.72 3.518l3.168 3.602c1.97 2.241 4.774 3.518 7.719 3.518h9.363l-9.358-10.644h1.54c7.203 0 13.038-5.977 13.038-13.354v-5.236C73.642 6.006 67.784.028 60.588.028zm2.656 18.004c0 1.818-1.437 3.29-3.211 3.29H41.862c-2.945 0-5.749 1.282-7.72 3.518l-3.168 3.602c-1.97 2.242-4.774 3.518-7.719 3.518h-8.764c-1.775 0-3.212-1.472-3.212-3.29v-4.064c0-1.818 1.437-3.29 3.212-3.29h18.127c2.945 0 5.749-1.282 7.72-3.518l3.168-3.602c1.97-2.242 4.774-3.518 7.719-3.518h8.808c1.774 0 3.211 1.472 3.211 3.29v4.064z" fill="#fff"/></svg>