<svg width="451" height="301" viewBox="0 0 451 301" fill="none" xmlns="http://www.w3.org/2000/svg" xmlns:xlink="http://www.w3.org/1999/xlink"><path fill-rule="evenodd" clip-rule="evenodd" d="M444.722 0H212.029c-2.959 0-5.518 1.947-6.133 4.669l-7.194 31.838c-.615 2.721-3.175 4.669-6.133 4.669H62.335c-2.958 0-5.518 1.947-6.133 4.668L.138 293.88c-.825 3.668 2.147 7.12 6.133 7.12H285.4c2.958 0 5.518-1.947 6.133-4.669l7.194-31.838c.615-2.721 3.174-4.669 6.133-4.669h83.805c2.958 0 5.518-1.947 6.133-4.668L450.862 7.12c.825-3.668-2.147-7.12-6.133-7.12h-.007z" fill="#878E9C"/></svg>