<svg width="451" height="301" viewBox="0 0 451 301" fill="none" xmlns="http://www.w3.org/2000/svg" xmlns:xlink="http://www.w3.org/1999/xlink">

<path fill-rule="evenodd" clip-rule="evenodd" d="M444.722 0H212.029C209.07 0 206.511 1.94729 205.896 4.66857L198.702 36.507C198.087 39.2283 195.527 41.1756 192.569 41.1756H62.3354C59.3767 41.1756 56.8174 43.1229 56.2021 45.8441L0.138175 293.88C-0.686583 297.548 2.28516 301 6.27149 301H285.4C288.358 301 290.918 299.053 291.533 296.331L298.727 264.493C299.342 261.772 301.901 259.824 304.86 259.824H388.665C391.623 259.824 394.183 257.877 394.798 255.156L450.862 7.11957C451.687 3.45229 448.715 0 444.729 0H444.722Z" fill="#878E9C"/>

</svg>
