<svg width="150" height="83" viewBox="0 0 150 83" fill="none" xmlns="http://www.w3.org/2000/svg"><path fill-rule="evenodd" clip-rule="evenodd" d="M148.358 50.17h-8.631c-1.043 0-1.823-.952-1.606-1.963l4.538-21.16c.217-1.01-.561-1.963-1.606-1.963h-8.604c-1.046 0-1.823-.952-1.607-1.963l4.542-21.158C135.601.953 134.823 0 133.778 0H74.236a1.64 1.64 0 00-1.607 1.288l-1.672 7.79a1.639 1.639 0 01-1.604 1.289l-52.83.08c-.773 0-1.442.537-1.604 1.288L.036 81.037C-.18 82.047.598 83 1.643 83H53.78c.777 0 1.45-.54 1.608-1.294l1.084-5.156a1.64 1.64 0 011.609-1.294h60.228a1.64 1.64 0 001.606-1.288l4.838-22.512a1.638 1.638 0 011.606-1.288h9.313a1.63 1.63 0 011.606 1.963l-4.548 21.162c-.217 1.01.559 1.961 1.603 1.963l9.485.019c.782 0 1.456-.54 1.612-1.3l4.535-21.857c.209-1.008-.569-1.952-1.608-1.952v.004z" fill="#878E9C"/></svg>