<svg width="103" height="19" viewBox="0 0 103 19" fill="none" xmlns="http://www.w3.org/2000/svg">
<path d="M9.5 14.4907L15.371 18.0244L13.813 11.3644L19 6.88336L12.1695 6.30547L9.5 0.0244141L6.83049 6.30547L0 6.88336L5.187 11.3644L3.629 18.0244L9.5 14.4907Z" fill="currentColor"/>
<path d="M30.5 14.4907L36.371 18.0244L34.813 11.3644L40 6.88336L33.1695 6.30547L30.5 0.0244141L27.8305 6.30547L21 6.88336L26.187 11.3644L24.629 18.0244L30.5 14.4907Z" fill="currentColor"/>
<path d="M51.5 14.4907L57.371 18.0244L55.813 11.3644L61 6.88336L54.1695 6.30547L51.5 0.0244141L48.8305 6.30547L42 6.88336L47.187 11.3644L45.629 18.0244L51.5 14.4907Z" fill="currentColor"/>
<path d="M72.5 14.4907L78.371 18.0244L76.813 11.3644L82 6.88336L75.1695 6.30547L72.5 0.0244141L69.8305 6.30547L63 6.88336L68.187 11.3644L66.629 18.0244L72.5 14.4907Z" fill="currentColor"/>
<path d="M93.5 14.4907L99.371 18.0244L97.813 11.3644L103 6.88336L96.1695 6.30547L93.5 0.0244141L90.8305 6.30547L84 6.88336L89.187 11.3644L87.629 18.0244L93.5 14.4907Z" fill="currentColor"/>
</svg>
