<svg width="103" height="19" viewBox="0 0 103 19" fill="none" xmlns="http://www.w3.org/2000/svg"><path d="M9.5 14.49l5.871 3.534-1.558-6.66L19 6.884l-6.83-.579L9.5.025l-2.67 6.28L0 6.883l5.187 4.481-1.558 6.66L9.5 14.491zm21 0l5.871 3.534-1.558-6.66L40 6.884l-6.83-.579L30.5.025l-2.67 6.28-6.83.578 5.187 4.481-1.558 6.66 5.871-3.533zm21 0l5.871 3.534-1.558-6.66L61 6.884l-6.83-.579L51.5.025l-2.67 6.28-6.83.578 5.187 4.481-1.558 6.66 5.871-3.533zm21 0l5.871 3.534-1.558-6.66L82 6.884l-6.83-.579L72.5.025l-2.67 6.28-6.83.578 5.187 4.481-1.558 6.66 5.871-3.533zm21 0l5.871 3.534-1.558-6.66L103 6.884l-6.83-.579L93.5.025l-2.67 6.28-6.83.578 5.187 4.481-1.558 6.66 5.871-3.533z" fill="currentColor"/></svg>