<svg width="242" height="216" viewBox="0 0 242 216" fill="none" xmlns="http://www.w3.org/2000/svg" xmlns:xlink="http://www.w3.org/1999/xlink"><path fill-rule="evenodd" clip-rule="evenodd" d="M238.642 0H113.777c-1.588 0-2.961 1.393-3.291 3.339l-3.861 22.771c-.33 1.947-1.703 3.34-3.291 3.34H33.45c-1.588 0-2.961 1.392-3.291 3.338L.074 210.187c-.442 2.622 1.152 5.092 3.291 5.092h149.783c1.588 0 2.961-1.393 3.291-3.339l3.861-22.772c.33-1.946 1.703-3.339 3.291-3.339h44.97c1.588 0 2.961-1.392 3.291-3.339L241.933 5.092C242.376 2.469 240.781 0 238.642 0z" fill="#FC00FF"/></svg>