<svg width="291" height="215" viewBox="0 0 291 215" fill="none" xmlns="http://www.w3.org/2000/svg" xmlns:xlink="http://www.w3.org/1999/xlink"><path fill-rule="evenodd" clip-rule="evenodd" d="M287.527 0H138.043c-1.639 0-3.056 1.39-3.397 3.335l-3.983 22.741c-.341 1.944-1.758 3.335-3.396 3.335h-92.75c-1.639 0-3.056 1.391-3.397 3.335L.077 209.915C-.38 212.534 1.265 215 3.473 215h175.196c1.639 0 3.056-1.391 3.397-3.335l3.983-22.741c.341-1.944 1.758-3.335 3.396-3.335h67.042c1.638 0 3.056-1.391 3.396-3.335l31.04-177.169C291.38 2.465 289.735 0 287.527 0z" fill="#FC00FF"/></svg>