<svg width="55" height="55" viewBox="0 0 55 55" fill="none" xmlns="http://www.w3.org/2000/svg">
<path d="M39.2734 18.5625H45.8047C46.7027 18.5625 47.4375 17.8277 47.4375 16.9297V7.13281C47.4375 6.23477 46.7027 5.5 45.8047 5.5H39.2734C38.3754 5.5 37.6406 6.23477 37.6406 7.13281V10.3984H32.4483C31.7625 8.50437 29.9664 7.13281 27.8438 7.13281C25.7211 7.13281 23.925 8.50437 23.2392 10.3984H18.0469V7.13281C18.0469 6.23477 17.3121 5.5 16.4141 5.5H9.88281C8.98477 5.5 8.25 6.23477 8.25 7.13281V16.9297C8.25 17.8277 8.98477 18.5625 9.88281 18.5625H16.4141C17.3121 18.5625 18.0469 17.8277 18.0469 16.9297V13.6641H23.2392C23.7291 15.052 24.823 16.1296 26.2109 16.6358V40.0993C24.823 40.5891 23.7454 41.6831 23.2392 43.071H18.0469V39.8054C18.0469 38.9073 17.3121 38.1726 16.4141 38.1726H9.88281C8.98477 38.1726 8.25 38.9073 8.25 39.8054V49.6023C8.25 50.5003 8.98477 51.2351 9.88281 51.2351H16.4141C17.3121 51.2351 18.0469 50.5003 18.0469 49.6023V46.3366H23.2392C23.9087 48.2307 25.7048 49.6023 27.8438 49.6023C29.9827 49.6023 31.7625 48.2307 32.4483 46.3366H37.6406V49.6023C37.6406 50.5003 38.3754 51.2351 39.2734 51.2351H45.8047C46.7027 51.2351 47.4375 50.5003 47.4375 49.6023V39.8054C47.4375 38.9073 46.7027 38.1726 45.8047 38.1726H39.2734C38.3754 38.1726 37.6406 38.9073 37.6406 39.8054V43.071H32.4483C31.9584 41.6831 30.8645 40.6055 29.4766 40.0993V16.6358C30.8645 16.1459 31.9421 15.052 32.4483 13.6641H37.6406V16.9297C37.6406 17.8277 38.3754 18.5625 39.2734 18.5625ZM40.9062 8.76562H44.1719V15.2969H40.9062V8.76562ZM14.7812 15.2969H11.5156V8.76562H14.7812V15.2969ZM14.7812 47.9531H11.5156V41.4219H14.7812V47.9531ZM40.9062 41.4219H44.1719V47.9531H40.9062V41.4219ZM27.8438 46.3203C26.9457 46.3203 26.2109 45.5855 26.2109 44.6875C26.2109 43.7895 26.9457 43.0547 27.8438 43.0547C28.7418 43.0547 29.4766 43.7895 29.4766 44.6875C29.4766 45.5855 28.7418 46.3203 27.8438 46.3203ZM27.8438 13.6641C26.9457 13.6641 26.2109 12.9293 26.2109 12.0312C26.2109 11.1332 26.9457 10.3984 27.8438 10.3984C28.7418 10.3984 29.4766 11.1332 29.4766 12.0312C29.4766 12.9293 28.7418 13.6641 27.8438 13.6641Z" fill="#878E9C"/>
</svg>
