<svg width="50" height="50" viewBox="0 0 50 50" fill="none" xmlns="http://www.w3.org/2000/svg">
<path d="M45.6199 13.075L45.6585 13.0375L36.0637 3.75004L33.3335 6.40001L38.7682 11.675C36.3472 12.575 34.6212 14.8375 34.6212 17.5C34.6212 20.95 37.5061 23.75 41.0607 23.75C41.9749 23.75 42.8508 23.5625 43.6364 23.225V41.2499C43.6364 42.6251 42.4773 43.7501 41.0607 43.7501C39.6441 43.7501 38.485 42.6251 38.485 41.2501V30.0001C38.485 27.2375 36.1799 25 33.3335 25H30.7578V7.50003C30.7576 4.73746 28.4523 2.5 25.6062 2.5H10.1516C7.30527 2.5 5 4.73746 5 7.50003V47.5H30.7576V28.7499H34.6212V41.2501C34.6212 44.7 37.5061 47.5 41.0607 47.5C44.6151 47.5 47.5 44.7 47.5 41.2501V17.5C47.5002 15.775 46.779 14.2125 45.6199 13.075ZM25.6062 20H10.1516V7.50003H25.6062V20ZM41.0607 20C39.6441 20 38.485 18.875 38.485 17.5C38.485 16.125 39.6441 15 41.0607 15C42.4773 15 43.6364 16.125 43.6364 17.5C43.6364 18.875 42.4773 20 41.0607 20Z" fill="#878E9C"/>
</svg>
