<svg width="50" height="50" viewBox="0 0 50 50" fill="none" xmlns="http://www.w3.org/2000/svg">
<path d="M26.3229 23.0552C25.8853 22.9891 25.4458 22.9438 25.0073 22.9438C22.1281 22.9438 19.251 24.1784 17.7073 26.7105C15.4062 30.4862 16.8479 35.4945 20.8332 37.6734C22.1458 38.3917 23.5864 38.5526 24.9999 38.5526C27.8791 38.5526 30.7488 37.1375 32.2917 34.6052C34.0334 31.7474 33.5947 28.468 31.5886 26.0089L34.375 15.8553L26.3229 23.0552ZM28.6072 32.8112C27.8656 34.0289 26.4875 34.6052 24.9999 34.6052C24.2656 34.6052 23.5603 34.6073 22.9176 34.2549C20.928 33.1674 20.2447 30.7487 21.3926 28.8648C22.1344 27.6471 23.5199 26.8901 25.0084 26.8901C25.7416 26.8901 26.4395 27.0688 27.0824 27.4201C29.0718 28.5086 29.7551 30.9263 28.6072 32.8112ZM24.9999 5C11.1927 5 0 16.2826 0 29.6711C0 34.5659 1.50104 38.6898 4.07395 42.5H14.5833V38.5526H6.24999C4.74271 35.7115 4.16666 32.899 4.16666 29.6711C4.16666 18.5316 13.5125 8.94737 24.9999 8.94737C36.4875 8.94737 45.8333 18.5316 45.8333 29.6711C45.8333 32.899 45.2572 35.7115 43.75 38.5526H35.4166V42.5H45.8333C48.4062 38.6898 50 34.5659 50 29.6711C50 16.2826 38.8073 5 24.9999 5Z" fill="#878E9C"/>
</svg>
