<svg width="51" height="50" viewBox="0 0 51 50" fill="none" xmlns="http://www.w3.org/2000/svg">
<path d="M42.2708 20.8333H8.9375V37.5C8.9375 43.75 11.0208 45.8333 17.2708 45.8333H33.9375C40.1875 45.8333 42.2708 43.75 42.2708 37.5V20.8333Z" stroke="#FC00FF" stroke-width="2" stroke-miterlimit="10" stroke-linecap="round" stroke-linejoin="round"/>
<path d="M45.4583 14.5833V16.6667C45.4583 18.9583 44.3542 20.8333 41.2917 20.8333H10.0417C6.85417 20.8333 5.875 18.9583 5.875 16.6667V14.5833C5.875 12.2917 6.85417 10.4167 10.0417 10.4167H41.2917C44.3542 10.4167 45.4583 12.2917 45.4583 14.5833Z" stroke="#FC00FF" stroke-width="2" stroke-miterlimit="10" stroke-linecap="round" stroke-linejoin="round"/>
<path d="M24.9184 10.4165H13.4184C12.7101 9.64571 12.7309 8.45821 13.4809 7.70821L16.4392 4.74988C17.2101 3.97904 18.4809 3.97904 19.2517 4.74988L24.9184 10.4165Z" stroke="#FC00FF" stroke-width="1.5" stroke-miterlimit="10" stroke-linecap="round" stroke-linejoin="round"/>
<path d="M37.8984 10.4165H26.3984L32.0651 4.74988C32.8359 3.97904 34.1068 3.97904 34.8776 4.74988L37.8359 7.70821C38.5859 8.45821 38.6068 9.64571 37.8984 10.4165Z" stroke="#FC00FF" stroke-width="1.5" stroke-miterlimit="10" stroke-linecap="round" stroke-linejoin="round"/>
<path d="M19.293 20.8333V31.5417C19.293 33.2083 21.1263 34.1875 22.5221 33.2917L24.4805 32C25.1888 31.5417 26.0846 31.5417 26.7721 32L28.6263 33.25C30.0013 34.1667 31.8555 33.1875 31.8555 31.5208V20.8333H19.293Z" stroke="#FC00FF" stroke-width="1.5" stroke-miterlimit="10" stroke-linecap="round" stroke-linejoin="round"/>
</svg>
