<svg width="55" height="55" viewBox="0 0 55 55" fill="none" xmlns="http://www.w3.org/2000/svg">
<path d="M15.8042 42.8495C14.9842 42.2742 13.9239 41.929 12.7892 41.929H11.2485C10.619 41.929 10.0143 42.0306 9.45934 42.2201C10.5279 41.259 11.5881 40.3183 12.4661 39.5332C13.7666 40.1356 15.241 40.4672 16.7651 40.4672H17.6928L15.8042 42.8427V42.8495ZM42.5422 39.5332C41.2417 40.1356 39.7673 40.474 38.2349 40.474H37.241L39.1544 42.8833C39.9827 42.2877 41.0595 41.9358 42.2108 41.9358H43.7515C44.3893 41.9358 44.994 42.0441 45.5407 42.2268C44.4639 41.2658 43.4119 40.3183 42.5339 39.54L42.5422 39.5332ZM34.814 40.474H20.1197L17.0881 44.291C17.0881 44.291 17.1295 44.3519 17.1378 44.3858H37.8539C37.8539 44.3858 37.8705 44.3587 37.8788 44.3452L34.8057 40.4807L34.814 40.474ZM20.3682 24.3056H34.5655V39.1204H20.3682V24.3056ZM12.6318 16.7324L9.81551 32.5353C9.18599 36.0072 12.4827 39.1204 16.7733 39.1204H18.3389V12.7393H18.2892C15.4563 12.7393 13.0459 14.4381 12.6401 16.7324H12.6318ZM45.1928 32.5353L42.3765 16.7324C41.9706 14.4381 39.5602 12.7393 36.7274 12.7393H36.6114V39.1204H38.2432C42.5339 39.1204 45.8223 36.0072 45.2011 32.5353H45.1928ZM34.8057 4.57055L35.2861 9.38925C35.3773 10.3232 34.4744 11.1218 33.3313 11.1218H31.5256V12.7461H34.5655V22.6475H20.3682V12.7461H23.4827V11.1218H21.677C20.5339 11.1218 19.631 10.3232 19.7221 9.38925L20.2026 4.57055C20.302 3.54184 21.3539 2.75 22.613 2.75H32.4036C33.6626 2.75 34.7146 3.54184 34.814 4.57055H34.8057ZM29.5956 11.1218H25.4126V12.7461H29.5956V11.1218ZM27.5 52.25H41.8547C44.5633 52.25 46.75 50.4565 46.75 48.2502V45.7326C46.75 44.379 45.4081 43.2826 43.7515 43.2826H42.2108C40.8607 43.2826 39.6762 44.0203 39.32 45.0829L39.0964 45.7393H27.5H15.9036L15.68 45.0829C15.3238 44.0203 14.1393 43.2826 12.7892 43.2826H11.2485C9.59187 43.2826 8.25 44.379 8.25 45.7326V48.2502C8.25 50.4633 10.445 52.25 13.1453 52.25H27.5Z" fill="#878E9C"/>
</svg>
