<svg width="50" height="50" viewBox="0 0 50 50" fill="none" xmlns="http://www.w3.org/2000/svg">
<path d="M45.625 17H42.6645C41.8337 17 41.1025 17.5839 40.8662 18.432L39.0437 24.9998H38.8414L38.0314 22.3759C37.7764 21.5539 37.06 21 36.25 21H32.4999V18.9999C32.4999 17.8959 31.6618 17 30.6249 17H26.8749V15H28.7499C29.7868 15 30.6249 14.104 30.6249 13V6.99996C30.6249 5.89597 29.7868 5 28.7499 5H13.75C12.7132 5 11.875 5.89597 11.875 6.99996V12.9999C11.875 14.1039 12.7132 14.9999 13.75 14.9999H15.625V16.9999H9.99998C8.96313 17 8.125 17.8959 8.125 18.9999V26.9998H6.25003V24.9998C6.25003 23.896 5.4119 22.9999 4.37506 22.9999C3.33812 22.9999 2.5 23.896 2.5 24.9998V32.9998C2.5 34.1038 3.33812 34.9998 4.37497 34.9998C5.41182 34.9998 6.24995 34.1038 6.24995 32.9998V30.9998H8.125V34.9998C8.125 35.2958 8.18688 35.5878 8.30685 35.856L10.9712 41.856C11.2806 42.5538 11.9388 43 12.6644 43H35.2639C35.9258 43 36.5389 42.626 36.8764 42.02L38.5545 39H39.1693L40.9187 43.734C41.2037 44.498 41.8956 45 42.6644 45H45.625C46.6619 45 47.5 44.104 47.5 43V18.9999C47.5 17.8959 46.6619 17 45.625 17Z" fill="#878E9C"/>
</svg>
