<svg width="18" height="20" viewBox="0 0 18 20" fill="none" xmlns="http://www.w3.org/2000/svg"><path d="M17.123 4.965l.015-.016L13.3 1.028l-1.092 1.119 2.174 2.227a2.634 2.634 0 00-1.659 2.46c0 1.456 1.154 2.638 2.576 2.638.366 0 .716-.079 1.03-.221v7.61c0 .58-.463 1.056-1.03 1.056-.566 0-1.03-.475-1.03-1.056v-4.75c0-1.166-.922-2.111-2.06-2.111h-1.03V2.611C11.177 1.445 10.255.5 9.116.5h-6.18C1.797.5.875 1.445.875 2.611V19.5h10.303v-7.917h1.545v5.278c0 1.457 1.154 2.639 2.576 2.639 1.422 0 2.576-1.182 2.576-2.639V6.833c0-.728-.288-1.388-.752-1.868zM9.117 7.889H2.936V2.61h6.181v5.28zm6.182 0c-.566 0-1.03-.475-1.03-1.056 0-.58.464-1.055 1.03-1.055.567 0 1.03.475 1.03 1.055S15.867 7.89 15.3 7.89z" fill="#0F0908"/></svg>