<svg width="18" height="19" viewBox="0 0 18 19" fill="none" xmlns="http://www.w3.org/2000/svg"><path d="M16.699 7.993l-1.446-.174a6.45 6.45 0 00-.643-1.555l.899-1.143a.469.469 0 00-.037-.605l-1.49-1.49a.47.47 0 00-.605-.037l-1.144.9a6.365 6.365 0 00-1.553-.642l-.173-1.445a.47.47 0 00-.454-.402H7.946a.468.468 0 00-.453.402L7.32 3.247a6.418 6.418 0 00-1.553.642l-1.144-.898a.47.47 0 00-.605.036l-1.49 1.49a.47.47 0 00-.035.606l.898 1.143a6.4 6.4 0 00-.642 1.555l-1.445.173a.469.469 0 00-.403.454v2.107a.47.47 0 00.403.453l1.445.174c.148.55.364 1.07.643 1.552l-.898 1.145a.47.47 0 00.036.605l1.488 1.49a.47.47 0 00.605.038l1.144-.901a6.377 6.377 0 001.554.642l.174 1.445c.026.222.23.402.453.402h2.107c.224 0 .427-.18.453-.402l.174-1.445a6.437 6.437 0 001.554-.642l1.144.899a.47.47 0 00.604-.037l1.49-1.49a.47.47 0 00.037-.606l-.9-1.143c.28-.482.495-1.003.643-1.554l1.445-.173a.468.468 0 00.402-.453V8.447a.467.467 0 00-.401-.454zM9 13.549A4.05 4.05 0 119 5.45a4.05 4.05 0 010 8.1z" fill="#000"/></svg>