<svg width="21" height="16" viewBox="0 0 21 16" fill="none" xmlns="http://www.w3.org/2000/svg"><path d="M10.654 7.722a3.53 3.53 0 00-.526-.045c-1.152 0-2.303.494-2.92 1.507-.92 1.51-.344 3.514 1.25 4.385.525.288 1.102.352 1.667.352 1.152 0 2.3-.566 2.917-1.579.696-1.143.52-2.455-.282-3.438l1.115-4.062-3.22 2.88zm.914 3.902c-.297.488-.848.718-1.443.718-.294 0-.576 0-.833-.14-.796-.435-1.07-1.402-.61-2.156.297-.487.85-.79 1.446-.79.294 0 .573.072.83.212.796.435 1.069 1.402.61 2.156zM10.125.5c-5.523 0-10 4.513-10 9.868 0 1.958.6 3.608 1.63 5.132h4.203v-1.579H2.625c-.603-1.136-.833-2.261-.833-3.553 0-4.455 3.738-8.29 8.333-8.29 4.595.001 8.333 3.835 8.333 8.29 0 1.292-.23 2.417-.833 3.553h-3.333V15.5h4.166c1.03-1.524 1.667-3.174 1.667-5.132 0-5.355-4.477-9.868-10-9.868z" fill="#0F0908"/></svg>