<svg width="17" height="20" viewBox="0 0 17 20" fill="none" xmlns="http://www.w3.org/2000/svg"><path d="M5.88 0v1.668h1.668v.835a5.593 5.593 0 011.669 0v-.835h1.668V0H5.88z" fill="#0F0908"/><path d="M14.055 5.506l.584-.584.667.667 1.168-1.168-2.502-2.502-1.168 1.168.667.667-.75.75C8.715 2.087 3.543 3.338 1.208 7.342c-2.336 4.004-1.085 9.01 2.836 11.428 3.92 2.42 9.092 1.168 11.428-2.836 2.086-3.42 1.502-7.758-1.418-10.427zM8.383 17.434a5.803 5.803 0 01-5.84-5.839 5.803 5.803 0 015.84-5.839v5.84h5.839a5.803 5.803 0 01-5.84 5.838z" fill="#0F0908"/></svg>