<svg width="21" height="20" viewBox="0 0 21 20" fill="none" xmlns="http://www.w3.org/2000/svg"><path d="M4 7.357h9.333m0 0c0 .625.246 1.225.684 1.667a2.318 2.318 0 003.3 0A2.37 2.37 0 0018 7.357a2.37 2.37 0 00-.683-1.667 2.322 2.322 0 00-1.65-.69c-.62 0-1.213.248-1.65.69a2.37 2.37 0 00-.684 1.667zm-4.666 6.286H18m-9.333 0a2.37 2.37 0 01-.684 1.667 2.322 2.322 0 01-1.65.69 2.322 2.322 0 01-1.65-.69A2.37 2.37 0 014 13.643c0-.625.246-1.225.683-1.667a2.322 2.322 0 011.65-.69c.62 0 1.213.248 1.65.69a2.37 2.37 0 01.684 1.667z" stroke="currentColor" stroke-width="1.412" stroke-linecap="round" stroke-linejoin="round"/></svg>