<svg width="17" height="14" viewBox="0 0 17 14" fill="none" xmlns="http://www.w3.org/2000/svg">
<path fill-rule="evenodd" clip-rule="evenodd" d="M1.31013 6.31307C5.5565 4.42409 8.38808 3.17876 9.80486 2.57708C13.8501 0.859161 14.6906 0.56074 15.2385 0.550886C15.359 0.548719 15.6284 0.57921 15.8029 0.7238C15.9503 0.845889 15.9909 1.01081 16.0103 1.12657C16.0297 1.24232 16.0538 1.50601 16.0346 1.71205C15.8154 4.06375 14.8669 9.77071 14.3843 12.4047C14.1801 13.5192 13.7781 13.8929 13.3889 13.9294C12.543 14.0089 11.9006 13.3587 11.0813 12.8103C9.79932 11.9523 9.07506 11.4181 7.83063 10.5808C6.39248 9.61319 7.32477 9.08135 8.14437 8.21219C8.35886 7.98472 12.0859 4.52343 12.158 4.20944C12.167 4.17017 12.1754 4.02379 12.0902 3.9465C12.0051 3.8692 11.8794 3.89563 11.7887 3.91665C11.6601 3.94645 9.61202 5.3286 5.64451 8.06309C5.06318 8.47067 4.53662 8.66926 4.06485 8.65885C3.54476 8.64738 2.54431 8.3586 1.80058 8.11176C0.888367 7.809 0.163356 7.64893 0.226489 7.13475C0.259372 6.86693 0.620585 6.59304 1.31013 6.31307Z" fill="white"/>
</svg>
