<svg width="28" height="28" viewBox="0 0 28 28" fill="none" xmlns="http://www.w3.org/2000/svg"><path d="M2.8 14v10.8c0 .994.733 1.8 1.633 1.8H12.6V14H2.8zm22.225-6.213h-4.983c.358-.249.665-.496.879-.718a3.398 3.398 0 000-4.72c-1.235-1.267-3.386-1.264-4.62 0-.683.698-2.494 3.54-2.244 5.438h-.113c.248-1.898-1.563-4.74-2.245-5.438-1.235-1.264-3.386-1.264-4.62 0a3.403 3.403 0 000 4.72c.215.222.522.469.88.718H2.975c-.867 0-1.575.72-1.575 1.604v2.407c0 .443.353.802.788.802h10.237V9.39h3.15v3.21h10.238c.435 0 .787-.36.787-.802V9.39c0-.884-.705-1.604-1.575-1.604zm-12.692-.053s-.067.053-.292.053c-1.088 0-3.166-1.152-3.844-1.849a1.773 1.773 0 010-2.458 1.658 1.658 0 012.386 0c1.061 1.088 2.116 3.867 1.75 4.254zm3.625.053c-.223 0-.29-.052-.29-.053-.367-.387.689-3.166 1.75-4.254.635-.653 1.745-.656 2.386 0a1.77 1.77 0 010 2.458c-.679.697-2.756 1.849-3.846 1.849zM15.4 14v12.6h8.167c.902 0 1.633-.806 1.633-1.8V14h-9.8z" fill="#FC00FF"/></svg>