<svg width="28" height="28" viewBox="0 0 28 28" fill="none" xmlns="http://www.w3.org/2000/svg"><path d="M6.805 14.993c-1.642 0-2.953-.548-3.934-1.645-.98-1.096-1.47-2.585-1.47-4.467 0-1.862.49-3.34 1.47-4.437C3.852 3.348 5.163 2.8 6.805 2.8c1.642 0 2.953.548 3.934 1.644.98 1.097 1.47 2.575 1.47 4.437 0 1.882-.49 3.371-1.47 4.467-.981 1.097-2.292 1.645-3.934 1.645zM19.501 2.986h3.294L8.532 25.014H5.238L19.5 2.986zM6.805 12.325c1.428 0 2.143-1.148 2.143-3.444 0-2.275-.715-3.413-2.143-3.413S4.662 6.606 4.662 8.881c0 2.296.715 3.444 2.143 3.444zM21.195 25.2c-1.662 0-2.984-.548-3.965-1.644-.98-1.117-1.47-2.606-1.47-4.468 0-1.861.49-3.34 1.47-4.436 1.002-1.097 2.324-1.645 3.966-1.645 1.641 0 2.953.548 3.933 1.645.981 1.096 1.471 2.575 1.471 4.436 0 1.882-.49 3.371-1.47 4.468-.981 1.096-2.293 1.644-3.934 1.644zm0-2.668c1.43 0 2.143-1.148 2.143-3.444 0-2.275-.714-3.413-2.142-3.413-1.45 0-2.175 1.138-2.175 3.413 0 2.296.725 3.444 2.175 3.444z" fill="#FC00FF"/></svg>