<svg width="28" height="28" viewBox="0 0 28 28" fill="none" xmlns="http://www.w3.org/2000/svg"><path d="M2.878 14.98a9.796 9.796 0 01.392-4.235C4.68 6.351 9.096 3.12 14.337 3.062V.189c0-.16.218-.245.361-.148l6.462 4.343c.105.074.105.223 0 .29l-6.456 4.344c-.15.097-.361.012-.361-.148V6.003c-3.446.051-6.387 1.995-7.652 4.742a7.063 7.063 0 00-.654 3.386c.093 1.653.773 3.175 1.844 4.406.574.656.437 1.613-.305 2.11-.704.472-1.689.341-2.23-.286-1.328-1.516-2.213-3.363-2.468-5.38zm18.655-5.517c1.078 1.225 1.758 2.753 1.845 4.406a7.11 7.11 0 01-.654 3.386c-1.265 2.747-4.206 4.696-7.652 4.742V19.13c0-.16-.218-.245-.361-.148l-6.462 4.343c-.106.074-.106.222 0 .29l6.455 4.344c.15.097.362.012.362-.148v-2.873c5.24-.051 9.664-3.283 11.066-7.683a9.892 9.892 0 00.392-4.235c-.249-2.018-1.134-3.865-2.46-5.381a1.726 1.726 0 00-2.232-.285c-.735.496-.872 1.453-.299 2.109z" fill="#FC00FF"/></svg>