<svg width="195" height="41" viewBox="0 0 195 41" fill="none" xmlns="http://www.w3.org/2000/svg"><path d="M13.429 29a35.029 35.029 0 012.728 4.029c.697 1.32.987 2.216 1.495 3.808.312.88.594 1.142 1.2 1.142.66 0 .96-.447 1.192-1.137.48-1.503.858-2.65 1.453-3.734 1.168-2.093 2.62-3.952 4.045-5.74.386-.505 2.882-3.452 4.006-5.776 0 0 1.381-2.554 1.381-6.121 0-3.337-1.362-5.65-1.362-5.65l-3.921 1.05-2.382 6.278-.589.865-.117.157-.157.197-.275.313-.393.393-2.12 1.73-5.302 3.063-.882 5.134z" fill="#34A853"/><path d="M7.957 21.162c1.294 2.958 3.79 5.559 5.477 7.84l8.967-10.63s-1.263 1.653-3.555 1.653a4.595 4.595 0 01-4.614-4.612c0-1.764 1.06-2.976 1.06-2.976l-6.087 1.632-1.248 7.093z" fill="#FBBC04"/><path d="M22.5 3.864c2.979.961 5.528 2.979 7.07 5.954l-7.167 8.548s1.06-1.234 1.06-2.987c0-2.633-2.214-4.6-4.606-4.6-2.263 0-3.562 1.652-3.562 1.652V7.046L22.5 3.864z" fill="#4285F4"/><path d="M9.6 7.641c1.778-2.13 4.908-4.323 9.223-4.323 2.093 0 3.67.55 3.67.55l-7.204 8.567h-5.105L9.6 7.641z" fill="#1A73E8"/><path d="M7.957 21.162s-1.19-2.333-1.19-5.713c0-3.195 1.24-5.987 2.833-7.808l5.693 4.795-7.336 8.726z" fill="#EA4335"/><path d="M130.456 31.43V13.214h2.338l6.33 11.093h.102l6.33-11.093h2.339v18.218h-2.339V20.617l.102-3.054h-.102l-5.693 10h-1.372l-5.693-10h-.102l.102 3.054V31.43h-2.342zm24.276.382c-1.321 0-2.428-.381-3.316-1.145-.889-.763-1.335-1.772-1.335-3.027 0-1.364.524-2.422 1.576-3.194 1.051-.772 2.346-1.157 3.881-1.157 1.373 0 2.5.254 3.382.763v-.356c0-.916-.314-1.65-.94-2.2-.627-.551-1.398-.827-2.314-.827-.678 0-1.291.16-1.842.477a2.47 2.47 0 00-1.131 1.322l-2.135-.915c.288-.747.856-1.432 1.702-2.074.847-.642 1.965-.954 3.355-.954 1.594 0 2.915.467 3.966 1.4 1.051.932 1.576 2.247 1.576 3.944v7.538h-2.237v-1.732h-.102c-.933 1.432-2.297 2.137-4.086 2.137zm.381-2.137c.966 0 1.843-.36 2.631-1.08.789-.72 1.182-1.568 1.182-2.557-.66-.543-1.652-.814-2.974-.814-1.135 0-1.991.245-2.567.738-.575.493-.865 1.069-.865 1.73 0 .61.263 1.094.788 1.45.525.357 1.127.535 1.805.535v-.002zm14.807 2.137c-.949 0-1.801-.204-2.554-.61-.753-.407-1.318-.917-1.689-1.527h-.102l.102 1.73V36.9h-2.338V18.94h2.237v1.73h.103c.372-.611.935-1.12 1.688-1.527.754-.408 1.606-.61 2.554-.61 1.61 0 3 .635 4.169 1.908 1.17 1.272 1.755 2.849 1.755 4.732s-.586 3.46-1.755 4.732c-1.168 1.272-2.559 1.909-4.169 1.909h-.001zm-.382-2.137c1.085 0 2.016-.411 2.797-1.226.78-.816 1.169-1.913 1.169-3.27s-.39-2.454-1.169-3.27c-.78-.816-1.712-1.227-2.797-1.227-1.101 0-2.038.407-2.809 1.222-.771.814-1.155 1.908-1.155 3.282 0 1.373.385 2.467 1.155 3.282.771.814 1.708 1.221 2.809 1.221v-.014zm12.521 2.137c-1.39 0-2.538-.34-3.445-1.017a6.06 6.06 0 01-1.995-2.545l2.084-.865c.66 1.567 1.788 2.34 3.382 2.34.728 0 1.326-.161 1.792-.478.466-.316.699-.746.699-1.271 0-.814-.568-1.366-1.704-1.654l-2.516-.61c-.797-.203-1.55-.59-2.262-1.157-.712-.568-1.068-1.336-1.068-2.302 0-1.102.487-1.997 1.462-2.686.974-.688 2.131-1.03 3.469-1.03 1.101 0 2.084.25 2.949.75a4.236 4.236 0 011.856 2.15l-2.034.839c-.457-1.102-1.407-1.654-2.847-1.654-.695 0-1.28.145-1.754.433-.473.287-.711.678-.711 1.17 0 .713.545 1.196 1.652 1.45l2.465.586c1.169.271 2.034.738 2.593 1.4.559.66.839 1.407.839 2.239 0 1.12-.458 2.045-1.373 2.799-.916.753-2.093 1.119-3.542 1.119l.009-.006zM61.154 20.57h-9.592v2.85h6.81c-.336 3.994-3.657 5.697-6.792 5.697a7.469 7.469 0 01-5.345-2.215 7.484 7.484 0 01-2.166-5.37c0-4.312 3.336-7.633 7.518-7.633 3.228 0 5.128 2.06 5.128 2.06l1.994-2.066s-2.559-2.849-7.224-2.849c-5.94 0-10.537 5.019-10.537 10.44 0 5.31 4.325 10.491 10.69 10.491 5.597 0 9.697-3.838 9.697-9.515 0-1.197-.174-1.89-.174-1.89h-.007zm7.876-2.027c-3.937 0-6.758 3.08-6.758 6.671 0 3.646 2.737 6.782 6.81 6.782 3.683 0 6.699-2.816 6.699-6.704 0-4.456-3.51-6.75-6.745-6.75h-.007zm.038 2.642c1.936 0 3.77 1.567 3.77 4.09 0 2.47-1.827 4.083-3.78 4.083-2.145 0-3.837-1.72-3.837-4.102 0-2.33 1.672-4.07 3.846-4.07h.001zm14.586-2.642c-3.936 0-6.757 3.08-6.757 6.671 0 3.646 2.737 6.782 6.81 6.782 3.683 0 6.699-2.816 6.699-6.704 0-4.456-3.51-6.75-6.745-6.75h-.007zm.04 2.642c1.935 0 3.77 1.567 3.77 4.09 0 2.47-1.828 4.083-3.78 4.083-2.145 0-3.838-1.72-3.838-4.102 0-2.33 1.672-4.07 3.846-4.07h.001zm14.361-2.642c-3.613 0-6.453 3.167-6.453 6.722 0 4.049 3.291 6.734 6.39 6.734 1.915 0 2.933-.761 3.686-1.636v1.327c0 2.32-1.408 3.711-3.54 3.711-2.054 0-3.083-1.528-3.441-2.395l-2.583 1.08c.916 1.94 2.76 3.963 6.046 3.963 3.592 0 6.33-2.264 6.33-7.02V18.943h-2.818v1.14c-.866-.935-2.051-1.545-3.623-1.545l.006.004zm.261 2.637c1.772 0 3.59 1.514 3.59 4.1 0 2.627-1.814 4.075-3.63 4.075-1.925 0-3.718-1.565-3.718-4.051 0-2.59 1.861-4.124 3.758-4.124zm18.751-2.637c-3.408 0-6.27 2.713-6.27 6.718 0 4.237 3.189 6.751 6.597 6.751 2.844 0 4.59-1.558 5.63-2.953l-2.315-1.547c-.603.936-1.611 1.853-3.293 1.853-1.889 0-2.758-1.036-3.296-2.04l9.013-3.749-.468-1.09c-.872-2.149-2.903-3.943-5.584-3.943h-.014zm.117 2.587c1.229 0 2.111.654 2.488 1.437l-6.019 2.518c-.259-1.95 1.585-3.955 3.531-3.955zm-10.692 10.481h2.96V11.776h-2.96v19.835z" fill="#767676"/></svg>