<svg width="145" height="31" viewBox="0 0 145 31" fill="none" xmlns="http://www.w3.org/2000/svg"><g clip-path="url(#clip0_1253_12116)"><path d="M15.977 30.524c8.32 0 15.065-6.715 15.065-15 0-8.284-6.745-15-15.065-15S.912 7.24.912 15.524c0 8.285 6.745 15 15.065 15z" fill="#CE2457"/><path fill-rule="evenodd" clip-rule="evenodd" d="M15.235 6.503c-4.671.38-8.342 4.275-8.342 9.023 0 5 4.07 9.054 9.093 9.054 5.022 0 9.093-4.053 9.093-9.054 0-4.749-3.672-8.644-8.344-9.023l-.245 5.947a3.122 3.122 0 012.626 3.076 3.124 3.124 0 01-3.13 3.117 3.124 3.124 0 01-3.13-3.117 3.122 3.122 0 012.623-3.076l-.244-5.947z" fill="#fff"/><path d="M15.975 5.868a1.959 1.959 0 001.963-1.954c0-1.08-.879-1.954-1.963-1.954a1.958 1.958 0 00-1.962 1.954c0 1.08.878 1.954 1.962 1.954z" fill="#fff"/><path d="M51.56 15.521c0 2.066-.76 3.735-2.193 5.086-1.433 1.35-3.204 1.986-5.313 1.986-2.108 0-3.795-.635-5.313-1.986-1.35-1.351-2.108-3.02-2.108-5.086 0-2.066.759-3.734 2.192-5.085 1.434-1.351 3.205-1.987 5.23-1.987 2.023 0 3.879.636 5.312 1.987 1.434 1.35 2.193 3.02 2.193 5.085zm-2.783 0c0-1.192-.422-2.225-1.35-3.02-.843-.794-2.023-1.191-3.373-1.191s-2.445.397-3.373 1.192c-.928.794-1.35 1.827-1.35 3.02 0 1.191.422 2.224 1.35 3.019.843.794 2.024 1.192 3.373 1.192 1.35 0 2.53-.398 3.374-1.192.927-.795 1.349-1.828 1.349-3.02zm11.687 6.439h-3.12V11.55h-4.808V9.086h12.65v2.464h-4.722v10.41zm11.711.32c-2.193 0-3.964-.318-5.398-.954v-2.542c1.603.715 3.29 1.033 4.976 1.033 1.265 0 2.193-.16 2.952-.477.674-.318 1.096-.795 1.096-1.351 0-1.112-1.012-1.59-3.12-1.59h-2.615v-2.304h2.615c1.77 0 2.614-.476 2.614-1.43 0-1.033-1.18-1.51-3.458-1.51-1.518 0-3.036.318-4.638.954V9.646c1.434-.557 3.205-.875 5.313-.875 1.687 0 3.12.318 4.301.954 1.096.636 1.687 1.51 1.687 2.463 0 1.43-.76 2.384-2.193 2.86 1.771.557 2.699 1.59 2.699 3.18 0 1.191-.59 2.224-1.856 2.94-1.265.794-2.951 1.112-4.975 1.112zm23.847-6.759c0 2.066-.759 3.735-2.192 5.086-1.434 1.35-3.205 1.986-5.313 1.986-2.108 0-3.795-.635-5.313-1.986-1.434-1.351-2.193-3.02-2.193-5.086 0-2.066.76-3.734 2.193-5.085 1.518-1.351 3.289-1.987 5.397-1.987 2.109 0 3.88.636 5.313 1.987 1.35 1.35 2.108 3.02 2.108 5.085zm-2.698 0c0-1.192-.422-2.225-1.35-3.02-.843-.794-2.023-1.191-3.373-1.191s-2.445.397-3.373 1.192c-.928.794-1.35 1.827-1.35 3.02 0 1.191.422 2.224 1.35 3.019.843.794 2.024 1.192 3.373 1.192 1.35 0 2.53-.398 3.374-1.192.843-.795 1.349-1.828 1.349-3.02zm13.662 6.439h-8.18V9.085h7.758c1.349 0 2.445.318 3.289.875.844.556 1.181 1.43 1.181 2.383 0 .636-.169 1.192-.507 1.67-.337.476-.759.873-1.349 1.112 1.856.476 2.783 1.589 2.783 3.337 0 1.112-.422 1.986-1.349 2.622-.844.556-2.025.874-3.626.874zm-5.06-10.57v2.861h3.879c.674 0 1.181-.159 1.602-.397.338-.238.59-.635.59-1.033 0-.953-.674-1.43-2.108-1.43h-3.963zm0 5.086v3.179h4.469c.759 0 1.265-.16 1.687-.398.422-.317.59-.635.59-1.191 0-.477-.168-.874-.59-1.192-.422-.318-1.012-.398-1.687-.398h-4.469zm15.852 5.476h-2.952V9.079h3.121v8.74l7.674-8.74h2.952v12.873h-3.12v-8.74l-7.675 8.74zm17.161 0h-3.12V9.079h3.12v12.873z" fill="#000"/><path d="M138.23 15.278l6.252 6.595h-4.036l-5.936-6.436 5.541-6.277h3.877l-5.698 6.118z" fill="#000"/></g><defs><clipPath id="clip0_1253_12116"><path fill="#fff" transform="translate(0 .524)" d="M0 0h145v30H0z"/></clipPath></defs></svg>