<svg width="193" height="41" viewBox="0 0 193 41" fill="none" xmlns="http://www.w3.org/2000/svg"><path d="M92.464 27.41v-2.77c-1.032.714-2.763 1.343-4.382 1.343-2.428 0-3.349-1.172-3.488-3.572h8.01v-1.8c0-5-2.15-6.886-5.47-6.886-4.047 0-5.973 3.172-5.973 7.515 0 5 2.4 7.428 6.642 7.428 2.121 0 3.684-.571 4.661-1.257zm20.764 1.257c1.535 0 2.624-.286 3.433-.886v-2.77c-.837.6-1.842.97-3.237.97-2.372 0-3.349-1.885-3.349-4.857 0-3.114 1.2-4.714 3.377-4.714 1.284 0 2.539.457 3.209.886V14.41c-.697-.4-1.925-.686-3.572-.686-4.242 0-6.447 3.115-6.447 7.486 0 4.8 2.149 7.457 6.586 7.457zM62.043 14.01v5.686h-4.437V14.01h-3.322v14.371h3.322v-6h4.437v6h3.321V14.01h-3.32zm18.309 11.686h-1.48V14.01h-9.684v1.229c0 3.514-.223 8.057-1.395 10.457H66.76v5.971h3.07v-3.286h7.452v3.286h3.07v-5.971zm22.718 2.685h3.767l-5.33-7.742 4.688-6.629h-3.349l-4.688 6.629V14.01h-3.322v14.371h3.322v-7.057l4.912 7.057zM87.078 16.41c1.646 0 2.149 1.4 2.149 3.2v.286h-4.633c.084-2.286.893-3.486 2.484-3.486zM75.55 25.696h-4.689c.922-2.172 1.173-6.086 1.173-8.572v-.428h3.516v9zm58.446 2.686h3.935l-6.922-10.458 6.475-9.4h-3.349l-6.279 9.143V8.524h-3.377v19.858h3.377v-9.315l6.14 9.315zm15.231-9.801c0-3.485-1.73-4.8-5.247-4.8-2.205 0-3.935.715-4.94 1.315v2.828c.893-.685 2.847-1.428 4.549-1.428 1.591 0 2.317.571 2.317 2.114v.8h-.531c-5.079 0-7.34 1.714-7.34 4.629 0 2.914 1.731 4.543 4.298 4.543 1.954 0 2.791-.658 3.433-1.343h.14c.028.371.139.857.251 1.143h3.237a37.236 37.236 0 01-.167-3.515v-6.286zm-3.321 6.372c-.419.629-1.2 1.143-2.373 1.143-1.395 0-2.093-.857-2.093-2.143 0-1.686 1.145-2.286 3.991-2.286h.475v3.286zm9.06-10.943h-3.07v18.514h3.322v-5.828c.837 1.285 2.065 1.971 3.488 1.971 3.238 0 5.47-2.657 5.47-7.486 0-4.8-2.177-7.457-5.302-7.457-1.563 0-2.847.743-3.74 2.143l-.168-1.857zm2.903 11.972c-1.758 0-2.651-1.458-2.651-4.772 0-3.343.948-4.8 2.818-4.8 1.814 0 2.708 1.457 2.708 4.771 0 3.343-.949 4.8-2.875 4.8zm17.982-9.286V14.01h-11.136v2.686h3.907V28.38h3.322V16.697h3.907zm1.966-2.686v14.37h5.052c3.265 0 5.581-1.714 5.581-5.085 0-3.2-2.065-4.886-5.526-4.886h-1.786v-4.4h-3.321zm11.861 0v14.37H193V14.01h-3.322zm-7.005 11.686h-1.535v-4.6h1.619c1.423 0 2.261.657 2.261 2.314s-.921 2.286-2.345 2.286zM51.494 28.382h-3.377V11.21h-1.508c-2.763 0-4.214 1.429-4.214 3.543 0 2.4 1.005 3.514 3.07 4.943l1.703 1.171-4.912 7.515H38.6l4.41-6.715c-2.54-1.857-3.964-3.657-3.964-6.714 0-3.829 2.596-6.429 7.536-6.429h4.912v19.858z" fill="#000"/><path d="M12.644 4.524a12.94 12.94 0 00-7.024 2.07 12.359 12.359 0 00-4.656 5.503 11.926 11.926 0 00-.722 7.084 12.158 12.158 0 003.456 6.281c2.29 2.222 7.681 5.436 8 8.812.048.504.426.917.946.917s.9-.413.946-.917c.319-3.376 5.706-6.585 7.995-8.805a12.16 12.16 0 003.461-6.28c.489-2.38.238-4.847-.718-7.088a12.358 12.358 0 00-4.658-5.507 12.932 12.932 0 00-7.026-2.07zm0 16.464c-.568 0-1.13-.109-1.656-.32a4.338 4.338 0 01-1.404-.91 4.19 4.19 0 01-.938-1.361 4.087 4.087 0 010-3.212 4.19 4.19 0 01.938-1.361c.402-.39.88-.7 1.404-.91a4.443 4.443 0 011.656-.32c1.148 0 2.248.443 3.06 1.23a4.133 4.133 0 011.267 2.967c0 1.113-.456 2.18-1.267 2.968a4.396 4.396 0 01-3.06 1.229z" fill="#F43"/></svg>