<svg width="50" height="50" viewBox="0 0 50 50" fill="none" xmlns="http://www.w3.org/2000/svg"><path d="M45.625 17h-2.96c-.831 0-1.563.584-1.799 1.432L39.044 25h-.203l-.81-2.624C37.776 21.554 37.06 21 36.25 21H32.5v-2c0-1.104-.838-2-1.875-2h-3.75v-2h1.875c1.037 0 1.875-.896 1.875-2V7c0-1.104-.838-2-1.875-2h-15c-1.037 0-1.875.896-1.875 2v6c0 1.104.838 2 1.875 2h1.875v2H10c-1.037 0-1.875.896-1.875 2v8H6.25v-2c0-1.104-.838-2-1.875-2S2.5 23.896 2.5 25v8c0 1.104.838 2 1.875 2s1.875-.896 1.875-2v-2h1.875v4c0 .296.062.588.182.856l2.664 6c.31.698.968 1.144 1.693 1.144h22.6c.662 0 1.275-.374 1.612-.98L38.554 39h.615l1.75 4.734c.285.764.977 1.266 1.745 1.266h2.961c1.037 0 1.875-.896 1.875-2V19c0-1.104-.838-2-1.875-2z" fill="#878E9C"/></svg>