<svg width="51" height="50" viewBox="0 0 51 50" fill="none" xmlns="http://www.w3.org/2000/svg"><path d="M16.25 38.23l6.458 5c.834.832 2.709 1.25 3.959 1.25h7.916c2.5 0 5.209-1.876 5.834-4.376l5-15.208c1.041-2.917-.834-5.417-3.959-5.417h-8.333c-1.25 0-2.292-1.042-2.083-2.5l1.041-6.667c.417-1.875-.833-3.958-2.708-4.583-1.667-.625-3.75.208-4.583 1.458L16.25 19.896" stroke="#FC00FF" stroke-width="2" stroke-miterlimit="10"/><path d="M5.625 38.229V17.812c0-2.916 1.25-3.958 4.167-3.958h2.083c2.917 0 4.167 1.042 4.167 3.958V38.23c0 2.917-1.25 3.958-4.167 3.958H9.792c-2.917 0-4.167-1.041-4.167-3.958z" stroke="#FC00FF" stroke-width="1.5" stroke-linecap="round" stroke-linejoin="round"/></svg>