<svg width="51" height="50" viewBox="0 0 51 50" fill="none" xmlns="http://www.w3.org/2000/svg"><path d="M46.503 25v10.417c0 6.25-4.167 10.416-10.417 10.416H15.253c-6.25 0-10.417-4.166-10.417-10.416V25c0-5.667 3.417-9.625 8.73-10.292a11.093 11.093 0 011.687-.125h20.833c.542 0 1.062.021 1.562.104 5.375.626 8.855 4.605 8.855 10.313z" stroke="#FC00FF" stroke-width="2" stroke-linecap="round" stroke-linejoin="round"/><path d="M37.65 14.688a9.53 9.53 0 00-1.563-.105H15.254c-.583 0-1.146.042-1.688.125.292-.583.709-1.125 1.209-1.625l6.77-6.791c2.855-2.834 7.48-2.834 10.334 0l3.646 3.687a7.029 7.029 0 012.125 4.709zm8.853 11.354h-6.25a4.179 4.179 0 00-4.167 4.166 4.179 4.179 0 004.167 4.167h6.25" stroke="#FC00FF" stroke-width="2" stroke-linecap="round" stroke-linejoin="round"/></svg>