<svg width="55" height="55" viewBox="0 0 55 55" fill="none" xmlns="http://www.w3.org/2000/svg"><path d="M39.273 18.563h6.532c.898 0 1.633-.735 1.633-1.633V7.133c0-.898-.735-1.633-1.633-1.633h-6.532c-.898 0-1.632.735-1.632 1.633v3.265h-5.193c-.686-1.894-2.482-3.265-4.604-3.265-2.123 0-3.919 1.371-4.605 3.265h-5.192V7.133c0-.898-.735-1.633-1.633-1.633H9.883c-.898 0-1.633.735-1.633 1.633v9.797c0 .898.735 1.633 1.633 1.633h6.531c.898 0 1.633-.735 1.633-1.633v-3.266h5.192a4.914 4.914 0 002.972 2.972v23.463a4.914 4.914 0 00-2.972 2.972h-5.192v-3.266c0-.898-.735-1.632-1.633-1.632H9.883c-.898 0-1.633.734-1.633 1.632v9.797c0 .898.735 1.633 1.633 1.633h6.531c.898 0 1.633-.735 1.633-1.633v-3.265h5.192a4.883 4.883 0 004.605 3.265c2.139 0 3.918-1.371 4.604-3.265h5.193v3.265c0 .898.734 1.633 1.632 1.633h6.532c.898 0 1.633-.735 1.633-1.633v-9.797c0-.898-.735-1.632-1.633-1.632h-6.532c-.898 0-1.632.734-1.632 1.632v3.266h-5.193a4.914 4.914 0 00-2.971-2.972V16.636a4.914 4.914 0 002.971-2.972h5.193v3.266c0 .898.734 1.633 1.632 1.633zm1.633-9.797h3.266v6.53h-3.266v-6.53zm-26.125 6.53h-3.265v-6.53h3.265v6.53zm0 32.657h-3.265v-6.531h3.265v6.531zm26.125-6.531h3.266v6.531h-3.266v-6.531zM27.844 46.32a1.638 1.638 0 01-1.633-1.633c0-.898.735-1.632 1.633-1.632s1.633.734 1.633 1.633c0 .898-.735 1.632-1.633 1.632zm0-32.656a1.638 1.638 0 01-1.633-1.633c0-.898.735-1.633 1.633-1.633s1.633.735 1.633 1.633-.735 1.633-1.633 1.633z" fill="#878E9C"/></svg>