<svg width="51" height="50" viewBox="0 0 51 50" fill="none" xmlns="http://www.w3.org/2000/svg"><path d="M45.795 21.75l-2.042 8.708c-1.75 7.521-5.208 10.563-11.708 9.938a21.898 21.898 0 01-3.375-.563L25.17 39c-8.688-2.062-11.375-6.354-9.334-15.062l2.042-8.73c.417-1.77.917-3.312 1.542-4.583 2.437-5.042 6.583-6.396 13.541-4.75l3.48.813c8.729 2.041 11.395 6.354 9.354 15.062z" stroke="#FC00FF" stroke-width="2" stroke-linecap="round" stroke-linejoin="round"/><path d="M32.042 40.396c-1.292.875-2.917 1.604-4.896 2.25l-3.291 1.083c-8.271 2.667-12.625.438-15.313-7.833l-2.666-8.23c-2.667-8.27-.459-12.645 7.812-15.312l3.292-1.083c.854-.27 1.666-.5 2.437-.646-.625 1.271-1.125 2.813-1.542 4.584l-2.041 8.729c-2.042 8.708.646 13 9.333 15.062l3.5.834c1.208.291 2.333.479 3.375.562zM27 17.771l10.104 2.563M24.96 25.833l6.043 1.542" stroke="#FC00FF" stroke-width="2" stroke-linecap="round" stroke-linejoin="round"/></svg>