<svg width="50" height="50" viewBox="0 0 50 50" fill="none" xmlns="http://www.w3.org/2000/svg"><path d="M26.323 23.055a8.824 8.824 0 00-1.316-.111c-2.879 0-5.756 1.234-7.3 3.767-2.3 3.775-.86 8.784 3.126 10.962 1.313.719 2.753.88 4.167.88 2.88 0 5.749-1.415 7.292-3.948 1.741-2.858 1.303-6.137-.703-8.596l2.786-10.154-8.052 7.2zm2.284 9.756c-.741 1.218-2.12 1.794-3.607 1.794-.734 0-1.44.002-2.082-.35-1.99-1.088-2.673-3.506-1.525-5.39.741-1.218 2.127-1.975 3.615-1.975a4.28 4.28 0 012.074.53c1.99 1.089 2.673 3.506 1.525 5.391zM25 5C11.193 5 0 16.283 0 29.671 0 34.566 1.501 38.69 4.074 42.5h10.51v-3.947H6.25c-1.507-2.841-2.083-5.654-2.083-8.882 0-11.14 9.345-20.724 20.833-20.724 11.487 0 20.833 9.585 20.833 20.724 0 3.228-.576 6.04-2.083 8.882h-8.333V42.5h10.416C48.406 38.69 50 34.566 50 29.671 50 16.283 38.807 5 25 5z" fill="#878E9C"/></svg>