<svg width="55" height="55" viewBox="0 0 55 55" fill="none" xmlns="http://www.w3.org/2000/svg"><path d="M15.804 42.85c-.82-.576-1.88-.921-3.015-.921h-1.54a5.54 5.54 0 00-1.79.291c1.069-.961 2.13-1.902 3.007-2.687 1.3.603 2.775.934 4.3.934h.927l-1.889 2.376v.006zm26.738-3.317c-1.3.603-2.775.941-4.307.941h-.994l1.913 2.41c.829-.596 1.905-.948 3.057-.948h1.54c.638 0 1.243.108 1.79.29-1.077-.96-2.13-1.908-3.007-2.686l.008-.007zm-7.728.941H20.12l-3.032 3.817s.041.06.05.095h20.716l.025-.04-3.073-3.865.008-.007zM20.368 24.306h14.198V39.12H20.367V24.306zm-7.736-7.574L9.816 32.535c-.63 3.472 2.667 6.585 6.957 6.585h1.566V12.74h-.05c-2.833 0-5.243 1.698-5.649 3.992h-.008zm32.56 15.803l-2.816-15.803c-.405-2.294-2.816-3.993-5.649-3.993h-.116V39.12h1.632c4.29 0 7.58-3.113 6.958-6.585h-.008zM34.807 4.571l.48 4.818c.091.934-.812 1.733-1.955 1.733h-1.805v1.624h3.04v9.902h-14.2v-9.902h3.115v-1.624h-1.806c-1.143 0-2.046-.799-1.955-1.733l.48-4.818c.1-1.03 1.152-1.821 2.411-1.821h9.79c1.26 0 2.312.792 2.411 1.82h-.008zm-5.21 6.55h-4.183v1.625h4.183v-1.624zM27.5 52.25h14.355c2.708 0 4.895-1.794 4.895-4v-2.517c0-1.354-1.342-2.45-2.998-2.45H42.21c-1.35 0-2.535.737-2.891 1.8l-.224.656H15.904l-.224-.656c-.356-1.063-1.54-1.8-2.89-1.8h-1.541c-1.657 0-2.999 1.096-2.999 2.45v2.517c0 2.213 2.195 4 4.895 4H27.5z" fill="#878E9C"/></svg>