<svg width="50" height="50" viewBox="0 0 50 50" fill="none" xmlns="http://www.w3.org/2000/svg"><path d="M45.62 13.075l.038-.037-9.594-9.288-2.73 2.65 5.434 5.275c-2.42.9-4.147 3.162-4.147 5.825 0 3.45 2.885 6.25 6.44 6.25.914 0 1.79-.188 2.575-.525V41.25c0 1.375-1.159 2.5-2.575 2.5-1.417 0-2.576-1.125-2.576-2.5V30c0-2.762-2.305-5-5.151-5h-2.576V7.5c0-2.763-2.306-5-5.152-5H10.152C7.305 2.5 5 4.737 5 7.5v40h25.758V28.75h3.863v12.5c0 3.45 2.885 6.25 6.44 6.25 3.554 0 6.439-2.8 6.439-6.25V17.5c0-1.725-.721-3.287-1.88-4.425zM25.606 20H10.152V7.5h15.454V20zm15.455 0c-1.417 0-2.576-1.125-2.576-2.5s1.16-2.5 2.576-2.5c1.416 0 2.575 1.125 2.575 2.5S42.477 20 41.061 20z" fill="#878E9C"/></svg>