<svg width="51" height="50" viewBox="0 0 51 50" fill="none" xmlns="http://www.w3.org/2000/svg"><path d="M42.27 20.833H8.938V37.5c0 6.25 2.084 8.333 8.334 8.333h16.666c6.25 0 8.334-2.083 8.334-8.333V20.833z" stroke="#FC00FF" stroke-width="2" stroke-miterlimit="10" stroke-linecap="round" stroke-linejoin="round"/><path d="M45.458 14.583v2.084c0 2.291-1.104 4.166-4.166 4.166h-31.25c-3.188 0-4.167-1.875-4.167-4.166v-2.084c0-2.291.98-4.166 4.167-4.166h31.25c3.062 0 4.166 1.875 4.166 4.166z" stroke="#FC00FF" stroke-width="2" stroke-miterlimit="10" stroke-linecap="round" stroke-linejoin="round"/><path d="M24.918 10.416h-11.5a1.95 1.95 0 01.063-2.708l2.958-2.958a2 2 0 012.813 0l5.666 5.666zm12.98 0h-11.5l5.667-5.666a2 2 0 012.813 0l2.958 2.958c.75.75.77 1.938.062 2.708zM19.293 20.833v10.709c0 1.666 1.833 2.645 3.23 1.75L24.48 32a2.082 2.082 0 012.292 0l1.854 1.25c1.375.917 3.23-.063 3.23-1.73V20.834H19.292z" stroke="#FC00FF" stroke-width="1.5" stroke-miterlimit="10" stroke-linecap="round" stroke-linejoin="round"/></svg>