<svg width="50" height="50" viewBox="0 0 50 50" fill="none" xmlns="http://www.w3.org/2000/svg"><path d="M25 20.125v5.813l2.917 2.916" stroke="#FC00FF" stroke-width="2" stroke-linecap="round" stroke-linejoin="round"/><path d="M11.457 25c0-7.48 6.063-13.542 13.542-13.542S38.54 17.521 38.54 25a13.56 13.56 0 01-5.208 10.687h-.02a13.422 13.422 0 01-8.313 2.855 13.425 13.425 0 01-8.25-2.813h-.021A13.513 13.513 0 0111.457 25z" stroke="#FC00FF" stroke-width="2" stroke-linecap="round" stroke-linejoin="round"/><path d="M16.73 35.73h.021a13.425 13.425 0 008.25 2.812c3.146 0 6.021-1.063 8.313-2.855h.02l-1.062 5.146c-1.02 3.959-3.312 5-6.125 5h-2.27c-2.813 0-5.126-1.041-6.126-5.02l-1.02-5.084zm0-21.46h.021a13.425 13.425 0 018.25-2.812c3.146 0 6.021 1.063 8.313 2.855h.02l-1.062-5.146c-1.02-3.959-3.312-5-6.125-5h-2.27c-2.813 0-5.126 1.041-6.126 5.02l-1.02 5.084z" stroke="#FC00FF" stroke-width="2" stroke-linecap="round" stroke-linejoin="round"/></svg>