<svg width="49" height="50" viewBox="0 0 49 50" fill="none" xmlns="http://www.w3.org/2000/svg"><path d="M4.91 29.396h9.55l-.659-2.134c-.38-1.224-1.474-2.052-2.703-2.052h-1.91m4.58 8.069H4.91m.648-17.245h-1.62c-1.162 0-2.19.793-2.536 1.959L1 19.357l6.624.92M6.351 37.255v3.743c0 .548.424 1.003.96 1.003h5.72c.525 0 .96-.443.96-1.003v-1.002m24.832-14.797h-1.91c-1.229 0-2.323.828-2.703 2.052l-.66 2.134h9.552m-.012 3.895h-8.858m6.144-13.001L47 19.357l-.402-1.364c-.346-1.166-1.374-1.96-2.536-1.96h-1.62M30.836 37.512v-4.233H17.164v4.233m16.856 2.483v1.003c0 .548.424 1.003.96 1.003h5.72c.525 0 .96-.443.96-1.003v-3.742M39.08 16.99l-.502.35a4.66 4.66 0 01-2.637.827H12.103M24 37.511H7.255c-1.295 0-2.345-1.096-2.345-2.449v-8.045c0-1.492.435-2.961 1.262-4.186a22.452 22.452 0 003.195-7.509l.57-2.565C10.55 9.971 12.93 8 15.677 8h16.666c2.737 0 5.116 1.97 5.742 4.757l.57 2.565a22.227 22.227 0 003.194 7.51 7.585 7.585 0 011.263 4.185v8.045c0 1.353-1.05 2.449-2.346 2.449H24z" stroke="#2453E1" stroke-width="1.5" stroke-linecap="round" stroke-linejoin="round"/></svg>