<svg width="49" height="50" viewBox="0 0 49 50" fill="none" xmlns="http://www.w3.org/2000/svg"><path d="M43.998 24.82c0 11.044-8.953 20-20 20S4 35.864 4 24.82c0-11.045 8.953-20 20-20s20 8.953 20 20h-.002zm-26.593 7.665a6.163 6.163 0 00-5.948-4.783l-1.012-.01a.96.96 0 00-.931 1.235 15.697 15.697 0 003.1 5.647c1.264 1.476 3.332 3.002 5.313 4.07.716.386 1.534-.303 1.265-1.07l-1.785-5.089h-.002zm11.38 5.088c-.269.768.55 1.457 1.265 1.071 1.98-1.066 4.05-2.594 5.314-4.07a15.666 15.666 0 003.1-5.647.96.96 0 00-.932-1.236l-1.012.01a6.166 6.166 0 00-5.948 4.784l-1.784 5.088h-.002zm-4.808-18.292a7.213 7.213 0 015.963 3.16c3.022-.472 6.056-.126 7.647.135a.81.81 0 00.922-.973c-1.492-6.732-7.534-11.668-14.532-11.668H24c-6.998 0-13.04 4.934-14.532 11.668a.81.81 0 00.922.973c1.589-.26 4.623-.61 7.647-.136A7.213 7.213 0 0124 19.28h-.023z" stroke="#2453E1" stroke-width="1.5" stroke-linecap="round" stroke-linejoin="round"/></svg>