<svg width="49" height="50" viewBox="0 0 49 50" fill="none" xmlns="http://www.w3.org/2000/svg"><path d="M44.4 14.342a40.882 40.882 0 00-18.697 0m18.698.92L48 16.272m-22.297-1.01l-3.6 1.01M19.573 49v-5.364c0-3.502-2.813-6.338-6.283-6.338H7.283C3.812 37.298 1 40.136 1 43.636V49m6.06-30.453v.038c0 7.946 6.412 14.514 14.29 14.636m-9.093-14.66v.024c0 5.1 4.117 9.318 9.172 9.395m-3.993-9.405v.01c0 2.263 1.828 4.135 4.071 4.17m17.726 21.994a85.01 85.01 0 01-8.363 0c-3.467-.223-5.167-3.126-5.167-6.632V6.967C25.703 3.685 28.365 1 31.618 1h7.265c3.046 0 5.515 2.491 5.515 5.564v31.553c0 3.506-1.7 6.409-5.167 6.633h.002zm.782-24.042a12.186 12.186 0 00-9.945 0v12.566h9.945V20.707z" stroke="#2453E1" stroke-width="1.5" stroke-linecap="round" stroke-linejoin="round"/></svg>