<svg width="50" height="50" viewBox="0 0 50 50" fill="none" xmlns="http://www.w3.org/2000/svg"><path d="M22.4 35.126v4.229c0 3.583-3.334 6.48-7.438 6.48-4.104 0-7.458-2.897-7.458-6.48v-4.23c0 3.584 3.333 6.126 7.458 6.126 4.104 0 7.438-2.563 7.438-6.125z" stroke="#FC00FF" stroke-width="2" stroke-linecap="round" stroke-linejoin="round"/><path d="M22.397 29.396c0 1.041-.292 2-.792 2.833-1.229 2.02-3.75 3.292-6.666 3.292-2.917 0-5.438-1.292-6.667-3.292a5.465 5.465 0 01-.792-2.833c0-1.792.834-3.396 2.167-4.563 1.354-1.187 3.208-1.895 5.27-1.895 2.063 0 3.918.729 5.272 1.895 1.375 1.146 2.208 2.771 2.208 4.563z" stroke="#FC00FF" stroke-width="2" stroke-linecap="round" stroke-linejoin="round"/><path d="M22.4 29.396v5.73c0 3.582-3.334 6.124-7.438 6.124-4.104 0-7.458-2.562-7.458-6.125v-5.73c0-3.582 3.333-6.478 7.458-6.478 2.063 0 3.917.729 5.271 1.895 1.334 1.167 2.167 2.792 2.167 4.584z" stroke="#FC00FF" stroke-width="1.5" stroke-linecap="round" stroke-linejoin="round"/><path d="M45.834 22.854v4.292c0 1.146-.917 2.083-2.083 2.125h-4.084c-2.25 0-4.312-1.646-4.5-3.896a4.184 4.184 0 011.25-3.396 4.152 4.152 0 013-1.25h4.334c1.166.042 2.083.98 2.083 2.125z" stroke="#FC00FF" stroke-width="2" stroke-linecap="round" stroke-linejoin="round"/><path d="M4.168 21.875v-4.167c0-5.666 3.417-9.625 8.73-10.291a11.089 11.089 0 011.687-.125h18.75c.541 0 1.062.02 1.562.104 5.375.625 8.854 4.604 8.854 10.312v3.021h-4.333c-1.167 0-2.23.459-3 1.25a4.184 4.184 0 00-1.25 3.396c.188 2.25 2.25 3.896 4.5 3.896h4.083v3.02c0 6.25-4.166 10.417-10.416 10.417h-5.209" stroke="#FC00FF" stroke-width="2" stroke-linecap="round" stroke-linejoin="round"/></svg>