<svg width="50" height="51" viewBox="0 0 50 51" fill="none" xmlns="http://www.w3.org/2000/svg"><path d="M45.127 21.971l-2.042 8.709c-1.75 7.52-5.208 10.562-11.708 9.937a21.906 21.906 0 01-3.375-.562l-3.5-.834c-8.688-2.062-11.375-6.354-9.334-15.062l2.042-8.73c.417-1.77.917-3.312 1.542-4.583 2.437-5.041 6.583-6.396 13.541-4.75l3.48.813c8.729 2.041 11.395 6.354 9.354 15.062z" stroke="#FC00FF" stroke-width="2" stroke-linecap="round" stroke-linejoin="round"/><path d="M31.374 40.617c-1.291.875-2.916 1.604-4.896 2.25l-3.291 1.084c-8.271 2.666-12.625.437-15.313-7.834l-2.666-8.229c-2.667-8.27-.459-12.646 7.812-15.312l3.292-1.084c.854-.27 1.666-.5 2.437-.646-.625 1.271-1.125 2.813-1.541 4.584l-2.042 8.729c-2.042 8.708.646 13 9.333 15.062l3.5.834c1.209.291 2.334.479 3.375.562zm-5.042-22.625l10.104 2.563m-12.143 5.499l6.042 1.542" stroke="#FC00FF" stroke-width="2" stroke-linecap="round" stroke-linejoin="round"/></svg>