<?xml version="1.0" encoding="utf-8"?><svg viewBox="0 0 26 26" xmlns="http://www.w3.org/2000/svg" xmlns:xlink="http://www.w3.org/1999/xlink"><style>:root>svg{display:none}:root>svg:target{display:block}</style><svg fill="none" viewBox="0 0 10 10" id="arrow_angle_down" xmlns="http://www.w3.org/2000/svg"><path d="M1 3.25l4 4 4-4" stroke="currentColor" stroke-width="1.25" stroke-linecap="round" stroke-linejoin="round"/></svg><svg fill="none" viewBox="0 0 10 11" id="arrow_angle_right" xmlns="http://www.w3.org/2000/svg"><path d="M3.25 9.5l4-4-4-4" stroke="currentColor" stroke-width="1.5" stroke-linecap="round" stroke-linejoin="round"/></svg><svg fill="none" viewBox="0 0 21 21" id="arrow_slider_left" xmlns="http://www.w3.org/2000/svg"><path d="M14 2.5l-8 8 8 8" stroke="#2453E1" stroke-width="1.5" stroke-linecap="round" stroke-linejoin="round"/></svg><svg fill="none" viewBox="0 0 21 21" id="arrow_slider_right" xmlns="http://www.w3.org/2000/svg"><path d="M7 18.5l8-8-8-8" stroke="#2453E1" stroke-width="1.5" stroke-linecap="round" stroke-linejoin="round"/></svg><svg fill="none" viewBox="0 0 24 24" id="burger" xmlns="http://www.w3.org/2000/svg"><path d="M3 6.001h18m-18 6h18m-18 6h18" stroke="currentColor" stroke-width="2" stroke-linecap="round" stroke-linejoin="round"/></svg><svg fill="none" viewBox="0 0 18 19" id="burger_chevron" xmlns="http://www.w3.org/2000/svg"><path d="M1.9 6.175l7.6 7.6 7.6-7.6" stroke="currentColor" stroke-width="1.25" stroke-linecap="round" stroke-linejoin="round"/></svg><svg fill="none" viewBox="0 0 20 20" id="burger_close" xmlns="http://www.w3.org/2000/svg"><path d="M4.693 14.69L15.3 4.083M4.7 4.083L15.305 14.69" stroke="currentColor" stroke-width="1.25" stroke-linecap="round"/></svg><svg fill="none" viewBox="0 0 24 24" id="close" xmlns="http://www.w3.org/2000/svg"><path fill-rule="evenodd" clip-rule="evenodd" d="M12 13.414l5.657 5.657a1 1 0 001.414-1.414L13.414 12l5.657-5.657a1 1 0 00-1.414-1.414L12 10.586 6.343 4.93A1 1 0 004.93 6.343L10.586 12l-5.657 5.657a1 1 0 101.414 1.414L12 13.414z" fill="currentColor"/></svg><svg fill="none" viewBox="0 0 26 25" id="compare" xmlns="http://www.w3.org/2000/svg"><path d="M15.227 19.5a3 3 0 003 3h.417a3 3 0 003-3v-6.727a3 3 0 00-3-3h-.417a3 3 0 00-3 3V19.5zM4.144 19.5a3 3 0 003 3h.416a3 3 0 003-3v-14a3 3 0 00-3-3h-.416a3 3 0 00-3 3v14z" stroke="currentColor" stroke-width="2" stroke-linecap="round" stroke-linejoin="round"/></svg><svg fill="none" viewBox="0 0 19 18" id="dzen" xmlns="http://www.w3.org/2000/svg"><path d="M9.814.896c.04 3.284.267 5.13 1.498 6.359 1.231 1.231 3.077 1.454 6.36 1.498-.129-4.283-3.577-7.732-7.858-7.857zM7.834 7.255C9.065 6.026 9.288 4.18 9.328.896a8.1 8.1 0 00-7.854 7.857c3.283-.04 5.128-.267 6.36-1.498zM1.475 9.24a8.1 8.1 0 007.853 7.856c-.04-3.284-.266-5.13-1.498-6.358C6.6 9.506 4.754 9.283 1.471 9.239h.004zM17.668 9.24c-3.283.04-5.128.266-6.36 1.498-1.23 1.232-1.453 3.078-1.497 6.358a8.1 8.1 0 007.854-7.857h.003z" fill="currentColor"/></svg><svg fill="none" viewBox="0 0 26 26" id="favorite" xmlns="http://www.w3.org/2000/svg"><path d="M13.682 23.894c-.374.141-.99.141-1.364 0C9.128 22.726 2 17.854 2 9.594 2 5.95 4.739 3 8.116 3 10.118 3 11.889 4.038 13 5.643 14.111 4.038 15.893 3 17.884 3 21.261 3 24 5.95 24 9.595c0 8.258-7.128 13.13-10.318 14.299z" fill="transparent" stroke="currentColor" stroke-width="2" stroke-linecap="round" stroke-linejoin="round"/></svg><svg fill="none" viewBox="0 0 16 17" id="handset" xmlns="http://www.w3.org/2000/svg"><path fill-rule="evenodd" clip-rule="evenodd" d="M5.448 11.052c2.564 2.564 4.939 2.844 5.636 2.87.843.031 1.703-.657 2.075-1.362-.593-.696-1.366-1.236-2.212-1.821-.5.499-1.115 1.425-1.934 1.093-.466-.187-1.617-.717-2.622-1.723-1.005-1.006-1.535-2.156-1.724-2.621-.332-.821.597-1.438 1.097-1.937-.586-.86-1.116-1.653-1.811-2.216-.715.373-1.407 1.227-1.375 2.08.026.698.306 3.073 2.87 5.637zm5.587 4.203c-.96-.035-3.68-.411-6.53-3.26-2.849-2.85-3.224-5.57-3.26-6.53-.053-1.464 1.068-2.886 2.363-3.441a.98.98 0 01.964.106c1.072.782 1.811 1.966 2.446 2.894A1.003 1.003 0 016.9 6.3l-.904.904a6.82 6.82 0 001.338 1.962c.7.7 1.498 1.128 1.962 1.338L10.2 9.6a1 1 0 011.278-.114c.947.656 2.059 1.384 2.87 2.422a.98.98 0 01.126.99c-.558 1.302-1.97 2.411-3.439 2.357z" fill="currentColor"/></svg><svg fill="none" viewBox="0 0 19 18" id="telegram" xmlns="http://www.w3.org/2000/svg"><path fill-rule="evenodd" clip-rule="evenodd" d="M2.585 8.512c4.349-1.906 7.248-3.162 8.7-3.768C15.426 3.01 16.287 2.71 16.848 2.7c.123-.002.399.029.578.174.15.124.192.29.212.407.02.116.045.382.025.59-.225 2.372-1.196 8.128-1.69 10.784-.21 1.125-.62 1.501-1.02 1.538-.866.08-1.524-.575-2.363-1.128-1.313-.866-2.054-1.405-3.329-2.249-1.472-.976-.518-1.512.322-2.389.22-.23 4.036-3.72 4.11-4.037.01-.04.018-.187-.07-.265-.087-.078-.215-.052-.308-.03-.132.03-2.23 1.424-6.292 4.182-.596.41-1.135.611-1.618.6-.533-.011-1.557-.302-2.319-.551-.934-.306-1.677-.467-1.612-.986.034-.27.404-.546 1.11-.828z" fill="currentColor"/></svg><svg fill="none" viewBox="0 0 16 16" id="timer" xmlns="http://www.w3.org/2000/svg"><path d="M8 1.333a6.666 6.666 0 110 13.333A6.666 6.666 0 018 1.333zm0 1.333a5.333 5.333 0 100 10.667A5.333 5.333 0 008 2.666zM8 4a.667.667 0 01.662.588l.005.078v3.058l1.805 1.804a.666.666 0 01-.88.998l-.063-.055-2-2a.667.667 0 01-.19-.384L7.333 8V4.666A.667.667 0 018 4z" fill="currentColor"/></svg><svg fill="none" viewBox="0 0 20 13" id="vk" xmlns="http://www.w3.org/2000/svg"><path fill-rule="evenodd" clip-rule="evenodd" d="M.04.55C.196 7.984 3.99 12.45 10.642 12.45h.377V8.197c2.445.238 4.293 1.989 5.035 4.252h3.453c-.948-3.383-3.441-5.253-4.998-5.967C16.067 5.6 18.256 3.457 18.78.55H15.64c-.68 2.358-2.7 4.502-4.62 4.704V.551H7.882v8.241C5.937 8.316 3.48 6.005 3.37.551H.04z" fill="#fff"/></svg><svg fill="none" viewBox="0 0 19 18" id="whatsapp" xmlns="http://www.w3.org/2000/svg"><path d="M9.571.9a8.1 8.1 0 110 16.2 8.06 8.06 0 01-4.074-1.098L1.474 17.1l1.096-4.024A8.1 8.1 0 019.572.9zm-2.76 4.293l-.162.006a.81.81 0 00-.302.082c-.087.05-.168.112-.238.184-.097.092-.152.171-.211.248-.3.39-.461.868-.459 1.36.002.396.106.782.268 1.144.331.73.876 1.504 1.595 2.22.174.173.344.347.527.508a7.654 7.654 0 003.11 1.657l.46.07c.15.009.3-.003.45-.01a1.62 1.62 0 00.675-.187c.106-.055.21-.114.31-.178l.102-.073c.11-.081.177-.139.267-.233a.94.94 0 00.17-.245c.064-.132.127-.384.153-.594.02-.16.013-.248.011-.302-.003-.087-.075-.176-.154-.215l-.471-.211s-.705-.307-1.136-.503a.405.405 0 00-.143-.033.389.389 0 00-.306.103c-.004-.002-.058.044-.644.754a.283.283 0 01-.298.105 1.15 1.15 0 01-.155-.053l-.204-.088a4.861 4.861 0 01-1.275-.812c-.102-.09-.197-.187-.294-.28a5.103 5.103 0 01-.827-1.028l-.047-.077a.81.81 0 01-.083-.166.26.26 0 01.05-.214s.196-.216.288-.332a3.46 3.46 0 00.213-.303c.095-.153.125-.311.075-.434a66.253 66.253 0 00-.703-1.653c-.048-.108-.19-.186-.318-.202a2.43 2.43 0 00-.458-.01l.164-.005z" fill="currentColor"/></svg><svg fill="none" viewBox="0 0 19 18" id="youtube" xmlns="http://www.w3.org/2000/svg"><path d="M7.771 11.7L12.442 9l-4.67-2.7v5.4zm10.404-7.047c.117.423.198.99.252 1.71.063.72.09 1.34.09 1.88l.054.757c0 1.971-.144 3.42-.396 4.347-.225.81-.747 1.332-1.557 1.557-.423.117-1.197.198-2.385.252-1.17.063-2.24.09-3.23.09L9.57 15.3c-3.77 0-6.12-.144-7.047-.396-.81-.225-1.332-.747-1.557-1.557-.117-.423-.198-.99-.252-1.71-.063-.72-.09-1.341-.09-1.881L.571 9c0-1.971.144-3.42.396-4.347.225-.81.747-1.332 1.557-1.557.423-.117 1.197-.198 2.385-.252 1.17-.063 2.241-.09 3.231-.09L9.571 2.7c3.771 0 6.12.144 7.047.396.81.225 1.332.747 1.557 1.557z" fill="currentColor"/></svg></svg>