<?xml version="1.0" encoding="utf-8"?><svg viewBox="0 0 140 225" xmlns="http://www.w3.org/2000/svg" xmlns:xlink="http://www.w3.org/1999/xlink"><style>:root>svg{display:none}:root>svg:target{display:block}</style><svg fill="none" viewBox="0 0 24 19" id="advantage" xmlns="http://www.w3.org/2000/svg"><rect x="5.763" y=".405" width="18" height="18" rx="2" fill="#EDF0F6"/><path d="M.766 17.015L2.823.888a.554.554 0 01.551-.483h4.793c.215 0 .378.192.342.402L7.485 6.863c-.053.318.32.53.567.321L15.666.75c.264-.223.598-.345.944-.345h6.805c.335 0 .476.426.205.624L1.315 17.337a.347.347 0 01-.55-.322z" fill="#FC00FF"/></svg><svg fill="none" viewBox="0 0 10 10" id="arrow_angle_down" xmlns="http://www.w3.org/2000/svg"><path d="M1 3.25l4 4 4-4" stroke="currentColor" stroke-width="1.25" stroke-linecap="round" stroke-linejoin="round"/></svg><svg fill="none" viewBox="0 0 10 11" id="arrow_angle_right" xmlns="http://www.w3.org/2000/svg"><path d="M3.25 9.5l4-4-4-4" stroke="currentColor" stroke-width="1.5" stroke-linecap="round" stroke-linejoin="round"/></svg><svg fill="none" viewBox="0 0 21 21" id="arrow_slider_left" xmlns="http://www.w3.org/2000/svg"><path d="M14 2.5l-8 8 8 8" stroke="currentColor" stroke-width="1.5" stroke-linecap="round" stroke-linejoin="round"/></svg><svg fill="none" viewBox="0 0 21 21" id="arrow_slider_right" xmlns="http://www.w3.org/2000/svg"><path d="M7 18.5l8-8-8-8" stroke="currentColor" stroke-width="1.5" stroke-linecap="round" stroke-linejoin="round"/></svg><svg fill="none" viewBox="0 0 24 24" id="burger" xmlns="http://www.w3.org/2000/svg"><path d="M3 6.001h18m-18 6h18m-18 6h18" stroke="currentColor" stroke-width="2" stroke-linecap="round" stroke-linejoin="round"/></svg><svg fill="none" viewBox="0 0 18 19" id="burger_chevron" xmlns="http://www.w3.org/2000/svg"><path d="M1.9 6.175l7.6 7.6 7.6-7.6" stroke="currentColor" stroke-width="1.25" stroke-linecap="round" stroke-linejoin="round"/></svg><svg fill="none" viewBox="0 0 20 20" id="burger_close" xmlns="http://www.w3.org/2000/svg"><path d="M4.693 14.69L15.3 4.083M4.7 4.083L15.305 14.69" stroke="currentColor" stroke-width="1.25" stroke-linecap="round"/></svg><svg fill="none" viewBox="0 0 42 44" id="cb_icon_layout" xmlns="http://www.w3.org/2000/svg"><path fill-rule="evenodd" clip-rule="evenodd" d="M41.138 21.216h-4.984c-.548 0-.958-.494-.843-1.018l4.06-18.68C39.485.994 39.077.5 38.53.5H4.999a.857.857 0 00-.843.667L.02 20.198c-.114.524.295 1.018.843 1.018h4.823c.548 0 .956.494.842 1.019L2.102 42.48c-.115.525.295 1.019.843 1.019H36.66a.857.857 0 00.843-.668l4.478-20.598a.849.849 0 00-.843-1.018z" fill="#fff" fill-opacity=".7"/></svg><svg fill="none" viewBox="0 0 24 24" id="close" xmlns="http://www.w3.org/2000/svg"><path fill-rule="evenodd" clip-rule="evenodd" d="M12 13.414l5.657 5.657a1 1 0 001.414-1.414L13.414 12l5.657-5.657a1 1 0 00-1.414-1.414L12 10.586 6.343 4.93A1 1 0 004.93 6.343L10.586 12l-5.657 5.657a1 1 0 101.414 1.414L12 13.414z" fill="currentColor"/></svg><svg fill="none" viewBox="0 0 13 13" id="close_p0" xmlns="http://www.w3.org/2000/svg"><path d="M0 0l12 12M12 0L0 12" stroke="currentColor" stroke-width="1.5"/></svg><svg fill="none" viewBox="0 0 26 25" id="compare" xmlns="http://www.w3.org/2000/svg"><path d="M15.227 19.5a3 3 0 003 3h.417a3 3 0 003-3v-6.727a3 3 0 00-3-3h-.417a3 3 0 00-3 3V19.5zM4.144 19.5a3 3 0 003 3h.416a3 3 0 003-3v-14a3 3 0 00-3-3h-.416a3 3 0 00-3 3v14z" stroke="currentColor" stroke-width="2" stroke-linecap="round" stroke-linejoin="round"/></svg><svg fill="none" viewBox="0 0 19 18" id="dzen" xmlns="http://www.w3.org/2000/svg"><path d="M9.814.896c.04 3.284.267 5.13 1.498 6.359 1.231 1.231 3.077 1.454 6.36 1.498-.129-4.283-3.577-7.732-7.858-7.857zM7.834 7.255C9.065 6.026 9.288 4.18 9.328.896a8.1 8.1 0 00-7.854 7.857c3.283-.04 5.128-.267 6.36-1.498zM1.475 9.24a8.1 8.1 0 007.853 7.856c-.04-3.284-.266-5.13-1.498-6.358C6.6 9.506 4.754 9.283 1.471 9.239h.004zM17.668 9.24c-3.283.04-5.128.266-6.36 1.498-1.23 1.232-1.453 3.078-1.497 6.358a8.1 8.1 0 007.854-7.857h.003z" fill="currentColor"/></svg><svg fill="none" viewBox="0 0 14 19" id="exc" xmlns="http://www.w3.org/2000/svg"><g clip-path="url(#nclip0_514_15002)"><path fill-rule="evenodd" clip-rule="evenodd" d="M13.328.125h-9.14a.577.577 0 00-.566.461l-2.56 12.289c-.073.358.2.693.566.693h9.238c.274 0 .51-.192.565-.46l2.56-12.29c.073-.358-.297-.693-.663-.693zm-2.886 14.542H1.204a.577.577 0 00-.565.461l-.627 3.054c-.073.358.2.693.565.693h9.238c.274 0 .51-.193.565-.461l.627-3.054a.577.577 0 00-.565-.693z" fill="currentColor"/></g><defs><clipPath id="nclip0_514_15002"><path fill="#fff" transform="translate(0 .5)" d="M0 0h14v18H0z"/></clipPath></defs></svg><svg viewBox="0 0 26 26" id="favorite" xmlns="http://www.w3.org/2000/svg"><path d="M13.682 23.894c-.374.141-.99.141-1.364 0C9.128 22.726 2 17.854 2 9.594 2 5.95 4.739 3 8.116 3 10.118 3 11.889 4.038 13 5.643 14.111 4.038 15.893 3 17.884 3 21.261 3 24 5.95 24 9.595c0 8.258-7.128 13.13-10.318 14.299z" stroke="currentColor" stroke-width="2" stroke-linecap="round" stroke-linejoin="round"/></svg><svg fill="none" viewBox="0 0 21 20" id="filter" xmlns="http://www.w3.org/2000/svg"><path d="M4 7.357h9.333m0 0c0 .625.246 1.225.684 1.667.437.442 1.03.69 1.65.69.618 0 1.212-.248 1.65-.69A2.37 2.37 0 0018 7.357a2.37 2.37 0 00-.683-1.667 2.322 2.322 0 00-1.65-.69c-.62 0-1.213.248-1.65.69a2.37 2.37 0 00-.684 1.667zm-4.666 6.286H18m-9.333 0a2.37 2.37 0 01-.684 1.667 2.322 2.322 0 01-1.65.69 2.322 2.322 0 01-1.65-.69A2.37 2.37 0 014 13.643c0-.625.246-1.225.683-1.667a2.322 2.322 0 011.65-.69c.62 0 1.213.248 1.65.69a2.37 2.37 0 01.684 1.667z" stroke="currentColor" stroke-width="1.412" stroke-linecap="round" stroke-linejoin="round"/></svg><svg fill="none" viewBox="0 0 16 17" id="handset" xmlns="http://www.w3.org/2000/svg"><path fill-rule="evenodd" clip-rule="evenodd" d="M5.448 11.052c2.564 2.564 4.939 2.844 5.636 2.87.843.031 1.703-.657 2.075-1.362-.593-.696-1.366-1.236-2.212-1.821-.5.499-1.115 1.425-1.934 1.093-.466-.187-1.617-.717-2.622-1.723-1.005-1.006-1.535-2.156-1.724-2.621-.332-.821.597-1.438 1.097-1.937-.586-.86-1.116-1.653-1.811-2.216-.715.373-1.407 1.227-1.375 2.08.026.698.306 3.073 2.87 5.637zm5.587 4.203c-.96-.035-3.68-.411-6.53-3.26-2.849-2.85-3.224-5.57-3.26-6.53-.053-1.464 1.068-2.886 2.363-3.441a.98.98 0 01.964.106c1.072.782 1.811 1.966 2.446 2.894A1.003 1.003 0 016.9 6.3l-.904.904a6.82 6.82 0 001.338 1.962c.7.7 1.498 1.128 1.962 1.338L10.2 9.6a1 1 0 011.278-.114c.947.656 2.059 1.384 2.87 2.422a.98.98 0 01.126.99c-.558 1.302-1.97 2.411-3.439 2.357z" fill="currentColor"/></svg><svg fill="none" viewBox="0 0 13 17" id="lightning" xmlns="http://www.w3.org/2000/svg"><path d="M.235 10.399h4.911c.186 0 .287.173.209.355l-2.54 5.89c-.133.308.23.49.47.235L12.9 6.632c.181-.193.101-.465-.136-.465H6.652c-.223 0-.312-.241-.161-.436L10.588.436c.15-.195.061-.436-.161-.436H4.595a.38.38 0 00-.332.23L.027 10.043c-.079.182.023.355.208.355z" fill="currentColor"/></svg><svg fill="none" viewBox="0 0 140 150" id="one" xmlns="http://www.w3.org/2000/svg"><path d="M105.237 88.987l18.157-85.439A2.937 2.937 0 00120.52 0H33.567a2.94 2.94 0 00-2.873 2.327L19.65 54.279a2.937 2.937 0 002.874 3.547H51.44c1.87 0 3.263 1.72 2.873 3.548l-6.128 28.834a2.938 2.938 0 01-2.873 2.327H13.903c-1.388 0-2.585.97-2.874 2.326L.066 146.452A2.937 2.937 0 002.94 150h123.159c1.388 0 2.585-.97 2.874-2.327l10.963-51.587a2.937 2.937 0 00-2.874-3.548h-28.951a2.939 2.939 0 01-2.874-3.548v-.003z" fill="currentColor"/></svg><svg fill="none" viewBox="0 0 133 225" id="r_mask" xmlns="http://www.w3.org/2000/svg"><g clip-path="url(#tclip0_1253_12113)"><path fill-rule="evenodd" clip-rule="evenodd" d="M19.957 157.366h31.518c2.444 0 4.553-1.728 5.059-4.14L71.763 80.88c.506-2.412 2.615-4.14 5.058-4.14h32.073c2.427 0 4.531-1.706 5.053-4.102L129.703.222c.522-2.396 2.621-4.102 5.053-4.102h186.58c3.288 0 5.747 3.064 5.058 6.313l-4.359 20.694c-.683 3.25 1.765 6.308 5.053 6.313l161.746.25c3.282.006 5.731 3.065 5.053 6.308L447.032 258.74c-.506 2.412-2.616 4.14-5.059 4.14H277.968c-3.288 0-5.742-3.059-5.058-6.308l2.583-12.273c.683-3.249-1.771-6.308-5.059-6.308H84.995c-3.288 0-5.741-3.058-5.058-6.307l14.314-68c.684-3.249-1.77-6.307-5.058-6.307H59.854c-2.438 0-4.553 1.727-5.058 4.14l-15.224 72.345c-.506 2.413-2.62 4.14-5.058 4.14H5.174c-3.292 0-5.746-3.064-5.058-6.313l14.777-70.172c.512-2.413 2.621-4.14 5.059-4.14h.005v-.011z" fill="currentColor"/></g><defs><clipPath id="tclip0_1253_12113"><path fill="#fff" transform="translate(0 -2)" d="M0 0h494v264H0z"/></clipPath></defs></svg><svg fill="none" viewBox="0 0 19 18" id="telegram" xmlns="http://www.w3.org/2000/svg"><path fill-rule="evenodd" clip-rule="evenodd" d="M2.585 8.512c4.349-1.906 7.248-3.162 8.7-3.768C15.426 3.01 16.287 2.71 16.848 2.7c.123-.002.399.029.578.174.15.124.192.29.212.407.02.116.045.382.025.59-.225 2.372-1.196 8.128-1.69 10.784-.21 1.125-.62 1.501-1.02 1.538-.866.08-1.524-.575-2.363-1.128-1.313-.866-2.054-1.405-3.329-2.249-1.472-.976-.518-1.512.322-2.389.22-.23 4.036-3.72 4.11-4.037.01-.04.018-.187-.07-.265-.087-.078-.215-.052-.308-.03-.132.03-2.23 1.424-6.292 4.182-.596.41-1.135.611-1.618.6-.533-.011-1.557-.302-2.319-.551-.934-.306-1.677-.467-1.612-.986.034-.27.404-.546 1.11-.828z" fill="currentColor"/></svg><svg fill="none" viewBox="0 0 16 16" id="timer" xmlns="http://www.w3.org/2000/svg"><path d="M8 1.333a6.666 6.666 0 110 13.333A6.666 6.666 0 018 1.333zm0 1.333a5.333 5.333 0 100 10.667A5.333 5.333 0 008 2.666zM8 4a.667.667 0 01.662.588l.005.078v3.058l1.805 1.804a.666.666 0 01-.88.998l-.063-.055-2-2a.667.667 0 01-.19-.384L7.333 8V4.666A.667.667 0 018 4z" fill="currentColor"/></svg><svg fill="none" viewBox="0 0 20 13" id="vk" xmlns="http://www.w3.org/2000/svg"><path fill-rule="evenodd" clip-rule="evenodd" d="M.04.55C.196 7.984 3.99 12.45 10.642 12.45h.377V8.197c2.445.238 4.293 1.989 5.035 4.252h3.453c-.948-3.383-3.441-5.253-4.998-5.967C16.067 5.6 18.256 3.457 18.78.55H15.64c-.68 2.358-2.7 4.502-4.62 4.704V.551H7.882v8.241C5.937 8.316 3.48 6.005 3.37.551H.04z" fill="#fff"/></svg><svg fill="none" viewBox="0 0 19 18" id="whatsapp" xmlns="http://www.w3.org/2000/svg"><path d="M9.571.9a8.1 8.1 0 110 16.2 8.06 8.06 0 01-4.074-1.098L1.474 17.1l1.096-4.024A8.1 8.1 0 019.572.9zm-2.76 4.293l-.162.006a.81.81 0 00-.302.082c-.087.05-.168.112-.238.184-.097.092-.152.171-.211.248-.3.39-.461.868-.459 1.36.002.396.106.782.268 1.144.331.73.876 1.504 1.595 2.22.174.173.344.347.527.508a7.654 7.654 0 003.11 1.657l.46.07c.15.009.3-.003.45-.01a1.62 1.62 0 00.675-.187c.106-.055.21-.114.31-.178l.102-.073c.11-.081.177-.139.267-.233a.94.94 0 00.17-.245c.064-.132.127-.384.153-.594.02-.16.013-.248.011-.302-.003-.087-.075-.176-.154-.215l-.471-.211s-.705-.307-1.136-.503a.405.405 0 00-.143-.033.389.389 0 00-.306.103c-.004-.002-.058.044-.644.754a.283.283 0 01-.298.105 1.15 1.15 0 01-.155-.053l-.204-.088a4.861 4.861 0 01-1.275-.812c-.102-.09-.197-.187-.294-.28a5.103 5.103 0 01-.827-1.028l-.047-.077a.81.81 0 01-.083-.166.26.26 0 01.05-.214s.196-.216.288-.332a3.46 3.46 0 00.213-.303c.095-.153.125-.311.075-.434a66.253 66.253 0 00-.703-1.653c-.048-.108-.19-.186-.318-.202a2.43 2.43 0 00-.458-.01l.164-.005z" fill="currentColor"/></svg><svg fill="none" viewBox="0 0 19 18" id="youtube" xmlns="http://www.w3.org/2000/svg"><path d="M7.771 11.7L12.442 9l-4.67-2.7v5.4zm10.404-7.047c.117.423.198.99.252 1.71.063.72.09 1.34.09 1.88l.054.757c0 1.971-.144 3.42-.396 4.347-.225.81-.747 1.332-1.557 1.557-.423.117-1.197.198-2.385.252-1.17.063-2.24.09-3.23.09L9.57 15.3c-3.77 0-6.12-.144-7.047-.396-.81-.225-1.332-.747-1.557-1.557-.117-.423-.198-.99-.252-1.71-.063-.72-.09-1.341-.09-1.881L.571 9c0-1.971.144-3.42.396-4.347.225-.81.747-1.332 1.557-1.557.423-.117 1.197-.198 2.385-.252 1.17-.063 2.241-.09 3.231-.09L9.571 2.7c3.771 0 6.12.144 7.047.396.81.225 1.332.747 1.557 1.557z" fill="currentColor"/></svg></svg>