<svg width="165" height="164" viewBox="0 0 165 164" fill="none" xmlns="http://www.w3.org/2000/svg"><path d="M48.8 96.331l11.41 6.543L45.36 74.25l-33.244.962 10.735 6.185L8.25 107.646s11.726 20.641 19.72 32.964c3.268 5.037 7.64 7.89 11.836 7.89H82.5v-29.897l-46.373-.014L48.8 96.331zm35.59-35.92l26.603 1.893 12.757-28.73-8.906 6.062-13.425-25.421s-19.956-.271-32.264.434c-5.035.29-8.913 2.59-10.609 6.147L41.25 57.097l22.024 14.817L82.07 32.489l11.262 21.804-8.94 6.118zm79.363 40.435L142.539 66l-28.281 13.592 23.023 37.851-27.351-.235.41-11.004-19.59 23.85 17.426 26.696.515-11.568 32.093-.013s13.703-18.955 21.375-31.073c3.153-4.958 3.678-9.819 1.594-13.25z" fill="#EDF0F6"/></svg>