<svg width="165" height="164" viewBox="0 0 165 164" fill="none" xmlns="http://www.w3.org/2000/svg"><path d="M40.098 88.35c-9.674 0-17.4-3.23-23.18-9.69C11.14 72.2 8.25 63.426 8.25 52.335c0-10.97 2.89-19.684 8.669-26.144 5.779-6.46 13.505-9.69 23.18-9.69 9.673 0 17.4 3.23 23.179 9.69 5.78 6.46 8.669 15.174 8.669 26.144 0 11.091-2.89 19.867-8.67 26.327-5.778 6.46-13.505 9.69-23.179 9.69zm74.816-70.753h19.41l-84.05 129.806h-19.41l84.05-129.806zm-74.816 55.03c8.418 0 12.627-6.764 12.627-20.293 0-13.407-4.21-20.111-12.627-20.111-8.417 0-12.626 6.704-12.626 20.11 0 13.53 4.209 20.294 12.626 20.294zm84.804 75.873c-9.8 0-17.589-3.23-23.368-9.69-5.78-6.581-8.67-15.357-8.67-26.327 0-10.969 2.89-19.684 8.67-26.144 5.904-6.46 13.694-9.69 23.368-9.69 9.674 0 17.4 3.23 23.179 9.69 5.779 6.46 8.669 15.175 8.669 26.144 0 11.092-2.89 19.867-8.669 26.327-5.779 6.46-13.505 9.69-23.179 9.69zm0-15.723c8.417 0 12.626-6.765 12.626-20.294 0-13.407-4.209-20.11-12.626-20.11-8.543 0-12.815 6.703-12.815 20.11 0 13.529 4.272 20.294 12.815 20.294z" fill="#EDF0F6"/></svg>