<svg width="165" height="164" viewBox="0 0 165 164" fill="none" xmlns="http://www.w3.org/2000/svg"><path d="M16.96 87.277a57.726 57.726 0 012.313-24.956c8.299-25.897 34.332-44.942 65.212-45.278V.114c0-.94 1.285-1.444 2.13-.873l38.077 25.595c.624.436.624 1.31 0 1.713l-38.04 25.594c-.882.571-2.13.068-2.13-.873V34.375c-20.306.302-37.637 11.756-45.09 27.946-2.828 6.113-4.26 12.864-3.856 19.951.551 9.741 4.553 18.709 10.869 25.965 3.378 3.862 2.57 9.505-1.8 12.427-4.149 2.788-9.95 2.016-13.145-1.679-7.82-8.935-13.035-19.817-14.54-31.708zm109.935-32.514c6.352 7.222 10.354 16.224 10.868 25.965.404 7.12-1.065 13.872-3.855 19.951-7.454 16.19-24.785 27.677-45.09 27.946V111.73c0-.941-1.285-1.444-2.13-.873l-38.077 25.594c-.624.437-.624 1.31 0 1.713l38.04 25.595c.882.571 2.13.067 2.13-.873v-16.929c30.88-.302 56.95-19.347 65.212-45.278 2.497-7.792 3.378-16.223 2.313-24.956-1.469-11.89-6.683-22.773-14.504-31.708-3.231-3.695-8.996-4.467-13.145-1.68-4.333 2.923-5.14 8.566-1.762 12.428z" fill="#EDF0F6"/></svg>