<svg width="166" height="165" viewBox="0 0 166 165" fill="none" xmlns="http://www.w3.org/2000/svg"><path d="M132.895 125.911c-15.817 0-28.688-13.484-28.688-30.054s12.871-30.053 28.688-30.053h15.937V52.446c0-7.366-5.718-13.357-12.75-13.357h-6.375V25.732c0-7.366-5.718-13.357-12.75-13.357h-89.25c-9.454 0-17.27 7.24-18.8 16.69-.14.547-.325 1.082-.325 1.676V132.59c0 11.047 8.58 20.036 19.125 20.036h108.375c7.032 0 12.75-5.991 12.75-13.357v-13.357h-15.937zm-111.563-93.5c0-3.68 2.856-6.679 6.375-6.679h89.25V39.09h-89.25c-3.519 0-6.375-2.998-6.375-6.678z" fill="#EDF0F6"/><path d="M160.382 74.25h-24.75c-10.916 0-19.8 9.254-19.8 20.625s8.884 20.625 19.8 20.625h24.75c2.732 0 4.95-2.31 4.95-5.156V79.406c0-2.846-2.218-5.156-4.95-5.156zm-24.75 27.5c-3.643 0-6.6-3.08-6.6-6.875s2.957-6.875 6.6-6.875 6.6 3.08 6.6 6.875-2.957 6.875-6.6 6.875z" fill="#EDF0F6"/></svg>