<svg width="165" height="164" viewBox="0 0 165 164" fill="none" xmlns="http://www.w3.org/2000/svg"><path d="M16.5 82.5v63.643c0 5.855 4.322 10.607 9.625 10.607H74.25V82.5H16.5zm130.969-36.614h-29.366c2.107-1.465 3.917-2.921 5.179-4.226 7.49-7.668 7.49-20.148 0-27.815-7.277-7.47-19.955-7.45-27.222 0-4.028 4.112-14.702 20.857-13.226 32.041h-.668c1.466-11.184-9.207-27.929-13.226-32.041-7.276-7.45-19.955-7.45-27.222 0-7.48 7.667-7.48 20.147-.01 27.815 1.272 1.305 3.082 2.76 5.19 4.226H17.53c-5.114 0-9.281 4.245-9.281 9.455v14.182c0 2.61 2.079 4.727 4.64 4.727H73.22V55.34h18.56v18.91h60.328c2.562 0 4.641-2.118 4.641-4.727V55.34c0-5.21-4.158-9.455-9.281-9.455zm-74.798-.312s-.39.312-1.717.312c-6.413 0-18.655-6.788-22.655-10.891-3.89-3.99-3.89-10.495 0-14.485 1.884-1.929 4.38-2.987 7.035-2.987 2.645 0 5.142 1.058 7.026 2.987 6.255 6.41 12.474 22.786 10.311 25.064zm21.366.312c-1.318 0-1.708-.302-1.708-.312-2.163-2.278 4.056-18.654 10.311-25.064 3.741-3.848 10.284-3.867 14.061 0 3.899 3.99 3.899 10.495 0 14.485-4 4.103-16.242 10.891-22.664 10.891zM90.75 82.5v74.25h48.125c5.313 0 9.625-4.752 9.625-10.607V82.5H90.75z" fill="#EDF0F6"/></svg>