<svg width="165" height="165" viewBox="0 0 165 165" fill="none" xmlns="http://www.w3.org/2000/svg"><path d="M141.603 24.75H99.476c-4.046 0-7.85 1.576-10.71 4.437L29.185 88.77a15.049 15.049 0 00-4.435 10.71 15.05 15.05 0 004.437 10.712l42.126 42.128a15.099 15.099 0 0010.71 4.429 15.1 15.1 0 0010.711-4.43l59.579-59.583a15.05 15.05 0 004.437-10.711V39.898c0-8.353-6.795-15.148-15.147-15.148zm-20.196 50.494c-8.353 0-15.148-6.795-15.148-15.148s6.795-15.148 15.148-15.148c8.352 0 15.147 6.795 15.147 15.148s-6.795 15.148-15.147 15.148z" fill="#EDF0F6"/><path d="M125.763 8.25H83.398c-4.069 0-7.894 1.558-10.771 4.387L12.712 71.546c-2.877 2.828-4.462 6.59-4.462 10.59 0 3.129.973 6.11 2.773 8.614a25.03 25.03 0 014.664-6.296l59.915-58.908c4.795-4.715 11.17-7.311 17.951-7.311h42.365c1.477 0 2.923.131 4.332.37-1.986-6.002-7.728-10.355-14.487-10.355z" fill="#EDF0F6"/></svg>