<svg width="165" height="164" viewBox="0 0 165 164" fill="none" xmlns="http://www.w3.org/2000/svg">
<path d="M48.8004 96.3312L60.2106 102.874L45.3606 74.25L12.1156 75.2119L22.8512 81.3967L8.25 107.646C8.25 107.646 19.976 128.287 27.9703 140.61C31.2378 145.647 35.6105 148.5 39.8062 148.5H82.5V118.603L36.1272 118.589L48.8004 96.3312Z" fill="#EDF0F6"/>
<path d="M84.3901 60.4112L110.993 62.3041L123.75 33.5739L114.844 39.6359L101.419 14.2147C101.419 14.2147 81.4635 13.9437 69.1552 14.6494C64.1201 14.9392 60.2416 17.2387 58.5462 20.7955L41.25 57.0974L63.2744 71.9136L82.0693 32.4895L93.3313 54.2931L84.3901 60.4112Z" fill="#EDF0F6"/>
<path d="M163.753 100.846L142.539 66L114.258 79.5921L137.281 117.443L109.93 117.208L110.34 106.204L90.75 130.054L108.176 156.75L108.691 145.182L140.784 145.169C140.784 145.169 154.487 126.214 162.159 114.096C165.312 109.138 165.837 104.277 163.753 100.846Z" fill="#EDF0F6"/>
</svg>
