<svg width="82" height="179" viewBox="0 0 82 179" fill="none" xmlns="http://www.w3.org/2000/svg"><g clip-path="url(#clip0_1439_371)"><path d="M156.619 132.887L183.734 5.298C184.311 2.57 182.235 0 179.442 0H49.592a4.39 4.39 0 00-4.29 3.474L28.81 81.056c-.578 2.73 1.5 5.298 4.291 5.298h43.18c2.792 0 4.873 2.57 4.291 5.299l-9.151 43.058a4.387 4.387 0 01-4.292 3.474H20.227a4.387 4.387 0 00-4.291 3.474L-.436 218.702C-1.014 221.431 1.063 224 3.855 224h183.918a4.387 4.387 0 004.291-3.474l16.373-77.038c.577-2.729-1.5-5.298-4.292-5.298h-43.234c-2.788 0-4.869-2.569-4.292-5.299v-.004z" fill="#EDF0F6"/></g><defs><clipPath id="clip0_1439_371"><path fill="#fff" d="M0 0h208v224H0z"/></clipPath></defs></svg>